<svg width="40" height="40" viewBox="0 0 40 40" fill="none" xmlns="http://www.w3.org/2000/svg">
<rect width="40" height="40" rx="20" fill="#008512"/>
<path d="M25.9412 18.5036V14.3327C25.9412 13.0444 24.8969 12 23.6085 12H17.5435C16.2551 12 15.2107 13.0444 15.2107 14.3327V25.3898M15.2107 15.5865L9.58015 17.5165C8.63959 17.841 8.00847 18.7266 8.00847 19.7215V25.3898M24.0762 25.3898H15.2107M15.2107 25.3898H8.00847M8.00847 25.3898H6" stroke="#FEFEFE" stroke-width="1.33898"/>
<path fill-rule="evenodd" clip-rule="evenodd" d="M32.782 16.1666C32.7275 16.1733 32.4856 16.2045 32.2444 16.2358C32.0032 16.2672 31.5767 16.3306 31.2966 16.3769C31.0165 16.4232 30.6218 16.4936 30.4195 16.5335C30.2172 16.5733 29.8136 16.662 29.5228 16.7306C29.2319 16.7992 28.7545 16.9246 28.4618 17.0093C28.1691 17.0941 27.7769 17.2162 27.5901 17.2808C27.4034 17.3453 27.0787 17.4679 26.8686 17.5531C26.6586 17.6384 26.3148 17.7942 26.1047 17.8993C25.8946 18.0044 25.6018 18.1639 25.454 18.2538C25.3061 18.3437 25.0642 18.5077 24.9164 18.6184C24.7686 18.729 24.5292 18.9396 24.3845 19.0863C24.2397 19.2331 24.0408 19.4565 23.9424 19.5828C23.8441 19.7091 23.6892 19.9268 23.5984 20.0665C23.5075 20.2062 23.3654 20.4577 23.2825 20.6255C23.1996 20.7933 23.082 21.08 23.0212 21.2628C22.9604 21.4455 22.8816 21.7286 22.8462 21.892C22.7893 22.1547 22.7819 22.2677 22.7819 22.8682C22.7819 23.4689 22.7893 23.5814 22.8463 23.8443C22.8817 24.0077 22.9538 24.2706 23.0065 24.4286C23.0591 24.5866 23.1552 24.8213 23.22 24.9502C23.2848 25.0791 23.3694 25.2346 23.4081 25.2958L23.4783 25.4071L22.546 26.3445C21.8061 27.0885 21.606 27.3053 21.5765 27.3951C21.556 27.4574 21.5405 27.5737 21.5421 27.6536C21.5437 27.7375 21.5686 27.845 21.601 27.9082C21.6319 27.9683 21.687 28.0447 21.7235 28.0779C21.7601 28.1111 21.8332 28.1601 21.886 28.1869C21.943 28.2157 22.0469 28.2354 22.1418 28.2354C22.2297 28.2354 22.3518 28.2145 22.4131 28.1889C22.4911 28.1563 22.8013 27.8664 23.4461 27.2235L24.3677 26.3047L24.6208 26.447C24.76 26.5252 25.0013 26.6389 25.1569 26.6995C25.3125 26.7601 25.5353 26.836 25.652 26.8681C25.7687 26.9002 25.9852 26.9459 26.133 26.9697C26.2922 26.9953 26.5848 27.013 26.8509 27.013C27.1079 27.0131 27.4285 26.9945 27.6006 26.9694C27.766 26.9454 28.0465 26.8874 28.2239 26.8406C28.4013 26.7938 28.675 26.7046 28.8322 26.6424C28.9894 26.5802 29.226 26.4709 29.358 26.3997C29.4901 26.3284 29.7095 26.1951 29.8457 26.1035C29.9819 26.0119 30.2191 25.829 30.3727 25.6971C30.5262 25.5652 30.7451 25.3522 30.8589 25.2238C30.9728 25.0954 31.1315 24.9012 31.2115 24.7922C31.2915 24.6832 31.4314 24.4731 31.5223 24.3253C31.6133 24.1774 31.7609 23.9101 31.8504 23.7311C31.94 23.5522 32.0635 23.2912 32.125 23.1511C32.1864 23.011 32.3085 22.7029 32.3961 22.4664C32.4838 22.2298 32.6191 21.8251 32.697 21.567C32.7748 21.3089 32.8951 20.8722 32.9643 20.5966C33.0334 20.3209 33.1413 19.8447 33.204 19.5382C33.2666 19.2317 33.3495 18.7925 33.3882 18.5621C33.4268 18.3317 33.4918 17.9076 33.5326 17.6197C33.5734 17.3318 33.609 16.9817 33.6117 16.8417C33.6162 16.6095 33.6097 16.5752 33.5381 16.4534C33.4885 16.3691 33.4128 16.2923 33.333 16.2456C33.245 16.194 33.1567 16.1688 33.0437 16.1628C32.9542 16.1581 32.8364 16.1598 32.782 16.1666ZM32.2842 17.5985C32.2746 17.6647 32.2176 18.0139 32.1575 18.3745C32.0974 18.7352 31.9953 19.2763 31.9307 19.577C31.8661 19.8777 31.7508 20.3571 31.6745 20.6423C31.5982 20.9276 31.4606 21.386 31.3688 21.6609C31.277 21.9359 31.1297 22.3321 31.0415 22.5414C30.9534 22.7507 30.83 23.0239 30.7673 23.1485C30.7047 23.273 30.5956 23.471 30.5249 23.5884C30.4542 23.7058 30.3103 23.9171 30.205 24.058C30.0998 24.1988 29.8879 24.4343 29.7343 24.5814C29.5806 24.7284 29.3345 24.9343 29.1874 25.039C29.0403 25.1436 28.7799 25.2983 28.6087 25.3828C28.4375 25.4672 28.1956 25.5691 28.0711 25.6092C27.9466 25.6494 27.7493 25.7026 27.6326 25.7276C27.5158 25.7525 27.26 25.78 27.0639 25.7886C26.8503 25.798 26.6124 25.7908 26.4698 25.7706C26.339 25.7521 26.1138 25.7059 25.9694 25.6681C25.8249 25.6303 25.6092 25.5543 25.49 25.4992L25.2732 25.399L26.6899 23.978C27.8383 22.8259 28.1135 22.5355 28.1434 22.4438C28.1637 22.3815 28.1791 22.2651 28.1775 22.185C28.1759 22.1049 28.153 21.9967 28.1266 21.9445C28.1002 21.8923 28.0515 21.8197 28.0183 21.7832C27.9851 21.7467 27.9087 21.6915 27.8486 21.6607C27.7853 21.6283 27.6779 21.6034 27.5939 21.6017C27.514 21.6002 27.3977 21.6155 27.3355 21.6358C27.2437 21.6657 26.9536 21.9406 25.803 23.0877L24.3836 24.5026L24.314 24.3644C24.2758 24.2884 24.2113 24.1268 24.1707 24.0053C24.1301 23.8838 24.0745 23.6801 24.0471 23.5526C24.0109 23.3838 23.9974 23.1941 23.9977 22.854C23.9979 22.5112 24.0115 22.325 24.0489 22.1532C24.0769 22.0246 24.137 21.8094 24.1824 21.675C24.2278 21.5407 24.3162 21.3249 24.3788 21.1956C24.4413 21.0663 24.5819 20.8269 24.6912 20.6635C24.8016 20.4984 25.0227 20.2278 25.1891 20.0541C25.3538 19.8823 25.5985 19.6612 25.7329 19.5628C25.8674 19.4644 26.0732 19.326 26.1904 19.2551C26.3075 19.1843 26.4942 19.0806 26.6052 19.0247C26.7162 18.9688 26.9832 18.8478 27.1986 18.7558C27.4139 18.6638 27.7811 18.5239 28.0145 18.4448C28.2479 18.3657 28.638 18.2442 28.8812 18.1749C29.1245 18.1056 29.5466 17.9971 29.8192 17.934C30.0917 17.8708 30.5548 17.774 30.8481 17.7189C31.1414 17.6638 31.5724 17.5883 31.8058 17.551C32.0393 17.5138 32.2463 17.4822 32.266 17.4808C32.292 17.4789 32.2969 17.5108 32.2842 17.5985Z" fill="#FEFEFE"/>
</svg>
