<svg width="35" height="35" viewBox="0 0 35 35" fill="none" xmlns="http://www.w3.org/2000/svg">
<path d="M13.4354 16.4063C13.0109 16.6853 12.5299 17.002 11.9974 17.4205C11.9342 17.4662 10.4478 18.5536 9.83916 19.5686C9.22776 20.5887 9.02896 22.2618 9.02059 22.3326C9.0035 22.4808 9.05059 22.6294 9.14999 22.7407C9.24939 22.8519 9.39134 22.9157 9.54061 22.9157H16.0661C16.3553 22.9157 16.5893 22.6814 16.5893 22.3926C16.5893 22.1038 16.3553 21.8694 16.0661 21.8694H10.1545C10.2535 21.3529 10.4377 20.6055 10.7366 20.1067C11.1505 19.4165 12.231 18.5446 12.6283 18.2551C13.1417 17.8519 13.6031 17.5481 14.0105 17.2803C15.077 16.5785 15.9193 16.0243 15.9193 14.6038C15.9193 12.7358 14.3994 11.2158 12.5313 11.2158C10.6626 11.2158 9.14197 12.7354 9.14197 14.6038C9.14197 14.8929 9.37599 15.127 9.66512 15.127C9.95426 15.127 10.1883 14.8929 10.1883 14.6038C10.1883 13.3126 11.2395 12.2621 12.5313 12.2621C13.8225 12.2621 14.873 13.3126 14.873 14.6038C14.873 15.4213 14.5274 15.6874 13.4354 16.4063Z" fill="#008512"/>
<path d="M22.4595 22.9767C22.7483 22.9767 22.9827 22.7423 22.9827 22.4535V19.987H24.5152C24.8039 19.987 25.0383 19.7526 25.0383 19.4639C25.0383 19.1751 24.8039 18.9407 24.5152 18.9407H22.9827V11.8003C22.9827 11.5683 22.8299 11.3643 22.6077 11.2987C22.3856 11.2332 22.146 11.3218 22.02 11.5164L17.0671 19.1796C16.9632 19.3407 16.9555 19.5455 17.0469 19.7136C17.1383 19.8817 17.3148 19.9867 17.5062 19.9867H21.9363V22.4532C21.9363 22.7423 22.1707 22.9767 22.4595 22.9767ZM18.4674 18.9407L21.9363 13.5734V18.9407H18.4674Z" fill="#008512"/>
<path d="M34.3255 15.1073C34.1047 14.921 33.774 14.9493 33.5885 15.1701L32.6695 16.2603C32.0633 7.89014 25.0641 1.26416 16.5419 1.26416C7.62309 1.26416 0.366882 8.52002 0.366882 17.4385C0.366882 26.3573 7.62309 33.6128 16.5419 33.6128C22.2551 33.6128 27.4337 30.6901 30.3941 25.7947C30.5437 25.5474 30.4645 25.2259 30.2173 25.0762C29.9703 24.9263 29.6484 25.0058 29.4988 25.2531C26.7295 29.8324 21.8858 32.5665 16.5419 32.5665C8.19996 32.5665 1.4132 25.7801 1.4132 17.4385C1.4132 9.09689 8.19996 2.31048 16.5419 2.31048C24.5539 2.31048 31.1276 8.57164 31.6354 16.4574L30.4635 15.4787C30.241 15.2932 29.9117 15.3235 29.7265 15.545C29.5413 15.7668 29.571 16.0967 29.7925 16.2819L31.8736 18.0199C31.9716 18.1015 32.0905 18.1416 32.2087 18.1416C32.3577 18.1416 32.5059 18.0781 32.6088 17.9557L34.3882 15.8449C34.5745 15.6238 34.5466 15.2935 34.3255 15.1073Z" fill="#008512"/>
</svg>
