<svg width="22" height="22" viewBox="0 0 22 22" fill="none" xmlns="http://www.w3.org/2000/svg">
<g clip-path="url(#clip0_79_152520)">
<path d="M8.44512 10.3133C8.17832 10.4887 7.87601 10.6878 7.54125 10.9509C7.50156 10.9796 6.56721 11.6631 6.18466 12.3011C5.80035 12.9423 5.67539 13.994 5.67013 14.0385C5.65939 14.1316 5.68899 14.225 5.75147 14.295C5.81395 14.3649 5.90317 14.405 5.997 14.405H10.0988C10.2805 14.405 10.4276 14.2577 10.4276 14.0762C10.4276 13.8947 10.2805 13.7473 10.0988 13.7473H6.38284C6.4451 13.4227 6.56086 12.9528 6.74874 12.6393C7.00896 12.2055 7.68813 11.6574 7.93783 11.4755C8.26053 11.222 8.55057 11.0311 8.80663 10.8627C9.47703 10.4216 10.0065 10.0733 10.0065 9.18036C10.0065 8.00618 9.05107 7.05078 7.87688 7.05078C6.70226 7.05078 5.74642 8.00596 5.74642 9.18036C5.74642 9.3621 5.89353 9.50921 6.07527 9.50921C6.25701 9.50921 6.40411 9.3621 6.40411 9.18036C6.40411 8.36878 7.06486 7.70847 7.87688 7.70847C8.68847 7.70847 9.34878 8.36878 9.34878 9.18036C9.34878 9.69424 9.13153 9.86151 8.44512 10.3133Z" fill="#008512"/>
<path d="M14.1172 14.4432C14.2987 14.4432 14.446 14.2959 14.446 14.1144V12.564H15.4093C15.5908 12.564 15.7381 12.4167 15.7381 12.2352C15.7381 12.0536 15.5908 11.9063 15.4093 11.9063H14.446V7.41806C14.446 7.27227 14.35 7.14402 14.2103 7.10281C14.0707 7.06159 13.9201 7.11728 13.8409 7.23961L10.7277 12.0565C10.6623 12.1578 10.6575 12.2865 10.715 12.3921C10.7724 12.4978 10.8833 12.5638 11.0037 12.5638H13.7883V14.1142C13.7883 14.2959 13.9356 14.4432 14.1172 14.4432ZM11.6079 11.9063L13.7883 8.53262V11.9063H11.6079Z" fill="#008512"/>
<path d="M21.5761 9.4968C21.4373 9.37973 21.2295 9.39749 21.1129 9.53626L20.5352 10.2216C20.1542 4.96031 15.7547 0.79541 10.3979 0.79541C4.79176 0.79541 0.230713 5.35624 0.230713 10.9621C0.230713 16.5682 4.79176 21.1288 10.3979 21.1288C13.989 21.1288 17.2441 19.2917 19.105 16.2146C19.199 16.0592 19.1492 15.8571 18.9938 15.763C18.8386 15.6687 18.6362 15.7187 18.5422 15.8742C16.8015 18.7526 13.7569 20.4712 10.3979 20.4712C5.15436 20.4712 0.888398 16.2054 0.888398 10.9621C0.888398 5.71884 5.15436 1.4531 10.3979 1.4531C15.434 1.4531 19.566 5.38868 19.8852 10.3454L19.1486 9.73028C19.0087 9.61365 18.8018 9.63272 18.6854 9.77193C18.5689 9.91136 18.5876 10.1188 18.7268 10.2352L20.0349 11.3276C20.0965 11.3789 20.1713 11.4041 20.2456 11.4041C20.3392 11.4041 20.4324 11.3642 20.4971 11.2872L21.6156 9.96047C21.7326 9.82148 21.7151 9.61387 21.5761 9.4968Z" fill="#008512"/>
</g>
<defs>
<clipPath id="clip0_79_152520">
<rect width="22.0007" height="22" fill="white" transform="translate(0 0.000976562)"/>
</clipPath>
</defs>
</svg>
