<svg width="440" height="286" viewBox="0 0 440 286" fill="none" xmlns="http://www.w3.org/2000/svg">
<path d="M268.031 210.251C319.311 210.251 360.881 168.794 360.881 117.655C360.881 66.5157 319.311 25.0591 268.031 25.0591C216.751 25.0591 175.181 66.5157 175.181 117.655C175.181 168.794 216.751 210.251 268.031 210.251Z" fill="#87D5F7"/>
<path d="M372.978 202.336H59.8553C57.7542 202.336 56.0352 204.05 56.0352 206.146C56.0352 208.241 57.7542 209.955 59.8553 209.955H372.978C375.079 209.955 376.798 208.241 376.798 206.146C376.798 204.05 375.079 202.336 372.978 202.336Z" fill="#47B4BC"/>
<path d="M329.195 232.708H149.904C152.005 232.708 153.724 234.422 153.724 236.517C153.724 238.612 152.005 240.327 149.904 240.327H329.195C331.296 240.327 333.015 238.612 333.015 236.517C333.015 234.422 331.296 232.708 329.195 232.708Z" fill="#47B4BC"/>
<path d="M218.348 244.136C218.348 242.041 220.067 240.327 222.168 240.327H115.395C113.294 240.327 111.575 242.041 111.575 244.136C111.575 246.232 113.294 247.946 115.395 247.946H222.168C220.067 247.946 218.348 246.232 218.348 244.136Z" fill="#47B4BC"/>
<path d="M305.065 247.946H189.039C191.14 247.946 192.859 249.66 192.859 251.755C192.859 253.851 191.14 255.565 189.039 255.565H305.065C307.166 255.565 308.885 253.851 308.885 251.755C308.885 249.66 307.166 247.946 305.065 247.946Z" fill="#47B4BC"/>
<path d="M252.325 259.354C252.325 257.258 254.044 255.544 256.145 255.544H161.809C159.708 255.544 157.989 257.258 157.989 259.354C157.989 261.449 159.708 263.163 161.809 263.163H256.145C254.023 263.163 252.325 261.449 252.325 259.354Z" fill="#47B4BC"/>
<path d="M264.232 263.164H225.733C223.632 263.164 221.913 264.878 221.913 266.973C221.913 269.069 223.632 270.783 225.733 270.783H264.232C266.333 270.783 268.052 269.069 268.052 266.973C268.052 264.878 266.333 263.164 264.232 263.164Z" fill="#47B4BC"/>
<path d="M225.925 278.381H208.416C206.315 278.381 204.596 280.095 204.596 282.191C204.596 284.286 206.315 286 208.416 286H225.925C228.026 286 229.745 284.286 229.745 282.191C229.745 280.095 228.026 278.381 225.925 278.381Z" fill="#47B4BC"/>
<path d="M167.688 228.989C167.688 226.795 169.407 225 171.508 225H121.316C119.215 225 117.496 226.795 117.496 228.989C117.496 231.183 119.215 232.978 121.316 232.978H171.508C169.407 232.978 167.688 231.183 167.688 228.989Z" fill="#47B4BC"/>
<path d="M347.892 225.022H190.715C192.816 225.022 194.535 226.817 194.535 229.011C194.535 231.205 192.816 233 190.715 233H347.913C350.014 233 351.733 231.205 351.733 229.011C351.712 226.817 349.993 225.022 347.892 225.022Z" fill="#47B4BC"/>
<path d="M301.224 221.702V220.876C301.224 219.183 302.476 217.786 304.089 217.532C303.919 217.511 303.749 217.49 303.558 217.49H288.851C290.952 217.49 292.671 219.204 292.671 221.299C292.671 223.395 290.952 225.109 288.851 225.109H303.558C303.728 225.109 303.919 225.088 304.089 225.067C302.476 224.792 301.224 223.395 301.224 221.702Z" fill="#47B4BC"/>
<path d="M282.844 221.299C282.844 219.204 284.563 217.49 286.665 217.49H87.1906C85.323 217.49 83.7949 219.014 83.7949 220.876V221.702C83.7949 223.564 85.323 225.088 87.1906 225.088H286.665C284.542 225.109 282.844 223.395 282.844 221.299Z" fill="#47B4BC"/>
<path d="M171.424 65.6953C108.711 65.6953 57.8818 116.385 57.8818 178.927H284.967C284.988 116.385 234.138 65.6953 171.424 65.6953Z" fill="#6FC347"/>
<path d="M171.424 178.927H284.966C284.966 116.385 234.137 65.6953 171.424 65.6953V178.927Z" fill="#5DB03A"/>
<path d="M251.731 98.8604L171.424 178.927H284.966C284.987 147.666 272.275 119.348 251.731 98.8604Z" fill="#509832"/>
<path d="M89.3552 114.565C53.8918 114.565 25.1348 143.243 25.1348 178.61H153.554C153.576 143.222 124.819 114.565 89.3552 114.565Z" fill="#AECE2D"/>
<path d="M89.3555 178.589H153.576C153.576 143.222 124.819 114.544 89.3555 114.544V178.589Z" fill="#95B128"/>
<path d="M134.751 133.317L89.3555 178.588H153.576C153.576 160.916 146.381 144.894 134.751 133.317Z" fill="#7B9421"/>
<path d="M268.031 94.9028C221.489 94.9028 183.755 132.534 183.755 178.948H352.307C352.307 132.513 314.573 94.9028 268.031 94.9028Z" fill="#AECE2D"/>
<path d="M268.031 178.927H352.307C352.307 132.513 314.573 94.8818 268.031 94.8818V178.927Z" fill="#95B128"/>
<path d="M327.625 119.518L268.031 178.948H352.307C352.307 155.731 342.884 134.714 327.625 119.518Z" fill="#7B9421"/>
<path d="M345.961 109.38C307.633 109.38 276.562 140.365 276.562 178.589H415.36C415.36 140.365 384.29 109.38 345.961 109.38Z" fill="#6FC347"/>
<path d="M345.962 178.589H415.361C415.361 140.365 384.29 109.38 345.962 109.38V178.589Z" fill="#5DB03A"/>
<path d="M395.05 129.656L345.982 178.589H415.381C415.36 159.477 407.592 142.185 395.05 129.656Z" fill="#509832"/>
<path d="M58.8161 80.3625H57.6064C58.1794 79.1349 58.519 77.7804 58.519 76.3412C58.519 71.1346 54.2956 66.9229 49.0748 66.9229C45.6791 66.9229 42.7079 68.7219 41.0525 71.4098C40.14 70.8807 39.0788 70.5632 37.9328 70.5632C34.5371 70.5632 31.7569 73.3146 31.7569 76.7222C31.7569 77.6322 31.9479 78.4788 32.3087 79.2619H29.571C26.7271 79.2619 24.3926 81.5901 24.3926 84.4261C24.3926 87.2622 26.7271 89.5904 29.571 89.5904H40.4371H47.5043H58.8161C61.3629 89.5904 63.4427 87.5162 63.4427 84.9764C63.4215 82.4366 61.3416 80.3625 58.8161 80.3625Z" fill="#87D5F7"/>
<path d="M342.948 12.0216H344.03C343.521 10.921 343.202 9.71464 343.202 8.42359C343.202 3.76733 346.98 0 351.649 0C354.684 0 357.337 1.60852 358.822 4.00015C359.65 3.51336 360.584 3.23821 361.603 3.23821C364.638 3.23821 367.121 5.69333 367.121 8.74106C367.121 9.54533 366.951 10.3073 366.633 11.0057H369.094C371.641 11.0057 373.721 13.0798 373.721 15.6196C373.721 18.1594 371.641 20.2336 369.094 20.2336H359.396H353.071H342.969C340.698 20.2336 338.852 18.3922 338.852 16.1276C338.831 13.8629 340.677 12.0216 342.948 12.0216Z" fill="#02A9B8"/>
<path d="M413.153 81.7385H411.667C412.389 80.2358 412.792 78.5638 412.792 76.786C412.792 70.3942 407.593 65.23 401.204 65.23C397.024 65.23 393.394 67.4311 391.336 70.7328C390.211 70.0767 388.916 69.6957 387.516 69.6957C383.335 69.6957 379.939 73.0821 379.939 77.2516C379.939 78.3522 380.194 79.4104 380.618 80.3628H377.244C373.742 80.3628 370.877 83.2201 370.877 86.7123C370.877 90.2045 373.742 93.0617 377.244 93.0617H390.572H399.252H413.132C416.251 93.0617 418.798 90.5219 418.798 87.4107C418.819 84.2783 416.251 81.7385 413.153 81.7385Z" fill="#87D5F7"/>
<path d="M67.9629 149.191C67.9629 160.048 77.3222 162.461 81.5243 162.461C85.7264 162.461 95.0857 160.07 95.0857 149.191C95.0857 138.312 86.639 123.137 81.5243 123.116C76.4096 123.073 67.9629 138.333 67.9629 149.191Z" fill="#7BAE42"/>
<path d="M76.4943 155.159C80.6964 155.159 90.0557 152.768 90.0557 141.889C90.0557 136.64 88.082 130.396 85.4716 125.317C90.0982 129.952 95.0856 140.852 95.0856 149.191C95.0856 160.048 85.7263 162.461 81.5241 162.461C77.8314 162.461 70.1274 160.599 68.3447 152.746C71.1674 154.588 74.4357 155.159 76.4943 155.159Z" fill="#679D42"/>
<path d="M80.7607 178.906H82.2888V152.535L81.737 144.323L80.7607 147.73V178.906Z" fill="#7E6729"/>
<path d="M80.7603 152.535L76.6006 148.386L77.3009 150.651L80.7603 155.159V152.535Z" fill="#7E6729"/>
<path d="M82.2881 155.752L87.1057 151.773L86.5963 153.508L82.2881 158.376V155.752Z" fill="#7E6729"/>
<path d="M48.3955 159.583C48.3955 167.71 56.3116 169.509 59.8771 169.509C63.4213 169.509 71.3587 167.71 71.3587 159.583C71.3587 151.456 64.2066 140.069 59.8771 140.048C55.5476 140.027 48.3955 151.456 48.3955 159.583Z" fill="#96C43D"/>
<path d="M55.6116 164.049C59.1558 164.049 67.0931 162.25 67.0931 154.122C67.0931 150.186 65.4165 145.508 63.2094 141.72C67.1356 145.17 71.3589 153.339 71.3589 159.604C71.3589 167.731 63.4428 169.53 59.8774 169.53C56.7576 169.53 50.2422 168.133 48.7354 162.25C51.1123 163.625 53.8713 164.049 55.6116 164.049Z" fill="#7FB141"/>
<path d="M59.2188 178.906H60.5133V162.08L60.0464 155.942L59.2188 158.863V178.906Z" fill="#7E6729"/>
<path d="M59.2186 162.08L55.7168 158.99L56.4808 160.916L59.2186 164.049V162.08Z" fill="#7E6729"/>
<path d="M60.5137 164.493L64.5885 161.339L64.164 162.8L60.5137 166.461V164.493Z" fill="#7E6729"/>
<path d="M62.4873 170.991C62.4873 176.684 68.0901 177.933 70.5944 177.933C73.0988 177.933 78.7016 176.684 78.7016 170.991C78.7016 165.297 73.6505 157.361 70.5944 157.339C67.5384 157.318 62.4873 165.297 62.4873 170.991Z" fill="#B2D235"/>
<path d="M67.5807 174.123C70.085 174.123 75.6879 172.874 75.6879 167.181C75.6879 164.43 74.5206 161.17 72.9501 158.503C75.7091 160.916 78.7015 166.631 78.7015 171.012C78.7015 176.705 73.0987 177.954 70.5944 177.954C68.3872 177.954 63.7818 176.98 62.7207 172.874C64.3973 173.806 66.3498 174.123 67.5807 174.123Z" fill="#95C43D"/>
<path d="M70.1279 179.181H71.0405V173.023L70.701 168.726L70.1279 172.112V179.181Z" fill="#7E6729"/>
<path d="M70.1276 173.023L67.6445 170.843L70.1276 174.398V173.023Z" fill="#7E6729"/>
<path d="M71.04 174.695L73.9263 173.234L71.04 176.07V174.695Z" fill="#7E6729"/>
<path d="M179.935 141.825C179.935 155.35 168.283 158.334 163.063 158.334C157.842 158.334 146.19 155.35 146.19 141.825C146.19 128.301 156.717 109.38 163.063 109.337C169.429 109.295 179.935 128.301 179.935 141.825Z" fill="#7BAE42"/>
<path d="M169.345 149.254C164.124 149.254 152.472 146.27 152.472 132.746C152.472 126.206 154.934 118.417 158.181 112.11C152.409 117.846 146.19 131.433 146.19 141.846C146.19 155.371 157.842 158.355 163.063 158.355C167.668 158.355 177.24 156.048 179.468 146.249C175.966 148.534 171.891 149.254 169.345 149.254Z" fill="#679D42"/>
<path d="M164.017 178.822H162.106V145.974L162.807 135.772L164.017 140.005V178.822Z" fill="#7E6729"/>
<path d="M164.017 145.974L169.195 140.81L168.325 143.646L164.017 149.254V145.974Z" fill="#7E6729"/>
<path d="M162.107 149.995L156.122 145.021L156.759 147.201L162.107 153.255V149.995Z" fill="#7E6729"/>
<path d="M204.32 161.53C204.32 168.81 197.232 170.419 194.048 170.419C190.865 170.419 183.776 168.81 183.776 161.53C183.776 154.249 190.186 144.069 194.048 144.047C197.911 144.005 204.32 154.249 204.32 161.53Z" fill="#96C43D"/>
<path d="M197.868 165.53C194.685 165.53 187.596 163.921 187.596 156.64C187.596 153.127 189.082 148.936 191.077 145.529C187.575 148.619 183.776 155.942 183.776 161.529C183.776 168.81 190.865 170.419 194.048 170.419C196.85 170.419 202.686 169.17 204.044 163.9C201.901 165.149 199.418 165.53 197.868 165.53Z" fill="#7FB141"/>
<path d="M194.622 178.821H193.476V163.752L193.9 158.27L194.622 160.873V178.821Z" fill="#7E6729"/>
<path d="M194.622 163.752L197.784 160.979L197.084 162.715L194.622 165.529V163.752Z" fill="#7E6729"/>
<path d="M193.476 165.932L189.825 163.096L190.186 164.408L193.476 167.688V165.932Z" fill="#7E6729"/>
<path d="M186.471 168.387C186.471 175.477 179.51 177.044 176.39 177.044C173.271 177.044 166.31 175.477 166.31 168.387C166.31 161.297 172.592 151.413 176.39 151.371C180.189 151.349 186.471 161.297 186.471 168.387Z" fill="#B2D235"/>
<path d="M180.146 172.261C177.026 172.261 170.065 170.694 170.065 163.604C170.065 160.175 171.53 156.112 173.482 152.81C170.044 155.815 166.33 162.927 166.33 168.366C166.33 175.456 173.291 177.023 176.411 177.023C179.149 177.023 184.879 175.816 186.216 170.694C184.094 171.901 181.674 172.261 180.146 172.261Z" fill="#95C43D"/>
<path d="M176.963 178.737H175.817V171.075L176.242 165.72L176.963 169.953V178.737Z" fill="#7E6729"/>
<path d="M176.964 171.075L180.062 168.366L176.964 172.789V171.075Z" fill="#7E6729"/>
<path d="M175.817 173.17L172.252 171.329L175.817 174.885V173.17Z" fill="#7E6729"/>
<path d="M158.818 168.387C158.818 175.477 151.857 177.044 148.737 177.044C145.617 177.044 138.656 175.477 138.656 168.387C138.656 161.297 144.938 151.413 148.737 151.371C152.536 151.349 158.818 161.297 158.818 168.387Z" fill="#B2D235"/>
<path d="M152.494 172.261C149.374 172.261 142.413 170.694 142.413 163.604C142.413 160.175 143.877 156.112 145.83 152.81C142.392 155.815 138.678 162.927 138.678 168.366C138.678 175.456 145.639 177.023 148.759 177.023C151.496 177.023 157.227 175.816 158.564 170.694C156.441 171.901 154.001 172.261 152.494 172.261Z" fill="#95C43D"/>
<path d="M149.31 178.737H148.164V171.075L148.589 165.72L149.31 169.953V178.737Z" fill="#7E6729"/>
<path d="M149.31 171.075L152.387 168.366L149.31 172.789V171.075Z" fill="#7E6729"/>
<path d="M148.164 173.17L144.577 171.329L148.164 174.885V173.17Z" fill="#7E6729"/>
<path d="M294.113 157.593C294.113 165.318 300.777 167.033 303.77 167.033C306.762 167.033 313.426 165.318 313.426 157.593C313.426 149.868 307.42 139.053 303.77 139.032C300.119 139.011 294.113 149.868 294.113 157.593Z" fill="#7BAE42"/>
<path d="M300.184 161.847C303.176 161.847 309.84 160.133 309.84 152.408C309.84 148.683 308.439 144.217 306.572 140.619C309.861 143.9 313.427 151.667 313.427 157.614C313.427 165.34 306.763 167.054 303.77 167.054C301.139 167.054 295.663 165.742 294.39 160.133C296.385 161.424 298.719 161.847 300.184 161.847Z" fill="#679D42"/>
<path d="M303.218 178.737H304.3V159.964L303.918 154.144L303.218 156.556V178.737Z" fill="#7E6729"/>
<path d="M303.219 159.964L300.269 157.022L300.757 158.63L303.219 161.848V159.964Z" fill="#7E6729"/>
<path d="M304.301 162.271L307.739 159.435L307.378 160.662L304.301 164.133V162.271Z" fill="#7E6729"/>
<path d="M280.892 173.107C280.892 177.15 284.881 178.039 286.664 178.039C288.447 178.039 292.437 177.15 292.437 173.107C292.437 169.065 288.85 163.393 286.664 163.393C284.478 163.371 280.892 169.065 280.892 173.107Z" fill="#B2D235"/>
<path d="M284.499 175.33C286.282 175.33 290.272 174.441 290.272 170.398C290.272 168.451 289.444 166.123 288.319 164.218C290.293 165.933 292.416 169.996 292.416 173.107C292.416 177.15 288.426 178.039 286.643 178.039C285.072 178.039 281.804 177.34 281.04 174.42C282.25 175.118 283.629 175.33 284.499 175.33Z" fill="#95C43D"/>
<path d="M286.324 178.737H286.982V174.356L286.727 171.287L286.324 173.7V178.737Z" fill="#7E6729"/>
<path d="M286.324 174.356L284.562 172.811L286.324 175.33V174.356Z" fill="#7E6729"/>
<path d="M286.981 175.541L289.019 174.504L286.981 176.536V175.541Z" fill="#7E6729"/>
<path d="M294.644 114.311L293.477 114.015L292.31 114.311L291.143 178.589H293.477H295.812L294.644 114.311Z" fill="#F6F7F7"/>
<path d="M293.371 118.354C293.371 117.782 293.859 117.317 294.432 117.317H294.687L294.623 114.332L293.456 114.036L292.288 114.332L291.121 178.631H292.267L293.371 118.354Z" fill="#9EBCBF"/>
<path d="M294.432 113.063L296.512 93.1041C296.554 92.6597 296.236 92.2576 295.769 92.2152C295.366 92.1729 294.984 92.448 294.899 92.8502L291.1 109.211C290.973 109.761 291.185 110.332 291.631 110.671L292.225 111.115C292.607 111.391 292.819 111.856 292.798 112.322L292.713 114.015L294.432 113.063Z" fill="#F6F7F7"/>
<path d="M293.858 115.306L310.476 126.608C310.858 126.862 311.367 126.756 311.622 126.397C311.855 126.058 311.792 125.592 311.473 125.338L298.846 114.227C298.421 113.846 297.806 113.761 297.297 113.994L296.639 114.29C296.214 114.481 295.705 114.46 295.302 114.206L293.858 113.338V115.306Z" fill="#F6F7F7"/>
<path d="M292.161 113.74L274.292 122.946C273.888 123.158 273.74 123.645 273.952 124.047C274.143 124.407 274.567 124.576 274.949 124.428L290.761 118.629C291.291 118.438 291.673 117.952 291.694 117.38L291.737 116.66C291.758 116.195 292.034 115.772 292.437 115.518L293.902 114.65L292.161 113.74Z" fill="#F6F7F7"/>
<path d="M293.477 115.729C294.426 115.729 295.196 114.962 295.196 114.015C295.196 113.068 294.426 112.301 293.477 112.301C292.527 112.301 291.758 113.068 291.758 114.015C291.758 114.962 292.527 115.729 293.477 115.729Z" fill="#F6F7F7"/>
<path d="M294.432 114.015C294.432 113.486 294.007 113.062 293.477 113.062C292.946 113.062 292.521 113.486 292.521 114.015C292.521 114.544 292.946 114.967 293.477 114.967C294.007 114.967 294.432 114.544 294.432 114.015Z" fill="#9EBAC2"/>
<path d="M323.444 129.19L322.532 128.979L321.64 129.19L320.749 178.589H322.532H324.336L323.444 129.19Z" fill="#F6F7F7"/>
<path d="M322.468 132.302C322.468 131.857 322.85 131.497 323.296 131.497H323.487L323.445 129.19L322.553 128.958L321.662 129.19L320.771 178.589H321.662L322.468 132.302Z" fill="#9EBCBF"/>
<path d="M322.999 128.047L319.497 113.041C319.412 112.703 319.072 112.491 318.733 112.576C318.436 112.639 318.223 112.936 318.245 113.253L319.603 126.079C319.645 126.502 319.942 126.883 320.367 127.01L320.897 127.18C321.237 127.285 321.513 127.56 321.619 127.92L321.98 129.169L322.999 128.047Z" fill="#F6F7F7"/>
<path d="M323.147 129.804L338.067 133.868C338.406 133.952 338.746 133.762 338.831 133.423C338.916 133.127 338.746 132.81 338.47 132.683L326.5 127.772C326.097 127.603 325.63 127.688 325.312 127.984L324.909 128.365C324.654 128.619 324.272 128.725 323.911 128.64L322.638 128.365L323.147 129.804Z" fill="#F6F7F7"/>
<path d="M321.513 129.105L310.838 140.259C310.604 140.513 310.604 140.915 310.859 141.148C311.092 141.36 311.453 141.381 311.686 141.169L321.704 133.021C322.043 132.746 322.192 132.301 322.064 131.878L321.916 131.328C321.81 130.968 321.895 130.608 322.149 130.333L322.998 129.338L321.513 129.105Z" fill="#F6F7F7"/>
<path d="M323.783 128.534C323.55 127.836 322.786 127.476 322.107 127.709C321.406 127.942 321.045 128.704 321.279 129.381C321.512 130.079 322.276 130.439 322.955 130.206C323.656 129.995 324.038 129.233 323.783 128.534Z" fill="#F6F7F7"/>
<path d="M323.231 128.746C323.104 128.365 322.679 128.174 322.297 128.301C321.915 128.428 321.724 128.852 321.852 129.233C321.979 129.614 322.404 129.825 322.786 129.677C323.168 129.529 323.359 129.127 323.231 128.746Z" fill="#9EBAC2"/>
<path d="M135.155 112.872L133.967 112.576L132.757 112.872L131.568 178.589H133.967H136.344L135.155 112.872Z" fill="#F6F7F7"/>
<path d="M133.86 116.999C133.882 116.407 134.349 115.92 134.943 115.92H135.197L135.134 112.851L133.945 112.555L132.757 112.851L131.568 178.568H132.736L133.86 116.999Z" fill="#9EBCBF"/>
<path d="M135.219 112.025L144.811 93.8872C145.024 93.4851 144.875 92.9771 144.451 92.7655C144.069 92.575 143.623 92.6808 143.389 93.0194L133.542 107.094C133.202 107.56 133.181 108.195 133.478 108.703L133.86 109.337C134.115 109.761 134.136 110.269 133.945 110.713L133.224 112.279L135.219 112.025Z" fill="#F6F7F7"/>
<path d="M133.839 113.93L145.278 130.968C145.533 131.349 146.063 131.454 146.445 131.201C146.785 130.968 146.912 130.502 146.721 130.142L138.975 114.819C138.72 114.311 138.168 113.994 137.595 114.015L136.853 114.057C136.364 114.078 135.897 113.867 135.6 113.486L134.56 112.11L133.839 113.93Z" fill="#F6F7F7"/>
<path d="M132.82 111.813L112.34 113.761C111.873 113.803 111.534 114.226 111.598 114.671C111.64 115.094 111.98 115.411 112.404 115.411L129.616 115.919C130.189 115.941 130.741 115.602 130.995 115.094L131.314 114.417C131.526 113.972 131.929 113.676 132.417 113.612L134.136 113.359L132.82 111.813Z" fill="#F6F7F7"/>
<path d="M134.818 114.112C135.67 113.644 135.98 112.576 135.511 111.726C135.042 110.876 133.97 110.567 133.118 111.035C132.266 111.503 131.956 112.571 132.425 113.421C132.895 114.271 133.966 114.58 134.818 114.112Z" fill="#F6F7F7"/>
<path d="M134.858 112.935C135.049 112.449 134.815 111.877 134.327 111.665C133.839 111.475 133.266 111.708 133.054 112.195C132.863 112.681 133.096 113.253 133.584 113.464C134.094 113.676 134.667 113.422 134.858 112.935Z" fill="#9EBAC2"/>
<path d="M110.728 129.042L109.836 128.83L108.924 129.042L108.032 178.44H109.836H111.619L110.728 129.042Z" fill="#F6F7F7"/>
<path d="M109.751 132.153C109.751 131.709 110.133 131.349 110.579 131.349H110.77L110.728 129.042L109.836 128.809L108.945 129.042L108.032 178.441H108.924L109.751 132.153Z" fill="#9EBCBF"/>
<path d="M110.282 127.899L106.78 112.893C106.695 112.554 106.356 112.343 106.016 112.427C105.719 112.491 105.507 112.787 105.528 113.105L106.886 125.931C106.929 126.354 107.226 126.735 107.65 126.862L108.181 127.031C108.52 127.137 108.796 127.412 108.902 127.772L109.263 129.021L110.282 127.899Z" fill="#F6F7F7"/>
<path d="M110.43 129.656L125.35 133.719C125.689 133.804 126.029 133.614 126.114 133.275C126.199 132.979 126.029 132.661 125.753 132.534L113.783 127.624C113.38 127.455 112.913 127.539 112.595 127.836L112.192 128.217C111.937 128.47 111.555 128.576 111.194 128.492L109.921 128.217L110.43 129.656Z" fill="#F6F7F7"/>
<path d="M108.796 128.957L98.1208 140.111C97.8873 140.365 97.8873 140.767 98.142 141C98.3754 141.211 98.7362 141.233 98.9697 141.021L108.987 132.873C109.326 132.597 109.475 132.153 109.348 131.73L109.199 131.179C109.093 130.82 109.178 130.46 109.433 130.185L110.281 129.19L108.796 128.957Z" fill="#F6F7F7"/>
<path d="M111.088 128.386C110.854 127.687 110.09 127.328 109.411 127.56C108.711 127.793 108.35 128.555 108.584 129.232C108.817 129.931 109.581 130.291 110.26 130.058C110.939 129.825 111.321 129.084 111.088 128.386Z" fill="#F6F7F7"/>
<path d="M110.515 128.576C110.388 128.195 109.963 127.983 109.581 128.132C109.199 128.259 108.987 128.682 109.136 129.063C109.263 129.444 109.687 129.634 110.069 129.507C110.451 129.38 110.642 128.957 110.515 128.576Z" fill="#9EBAC2"/>
<path d="M277.136 147.857H169.366V178.652H277.136V147.857Z" fill="#A7A7A7"/>
<path d="M277 115H187V148H277V115Z" fill="#C6C6C5"/>
<path d="M261 104H205V115H261V104Z" fill="#B8B8B8"/>
<path d="M222.041 164.303H215.122V171.202H222.041V164.303Z" fill="#5A5855"/>
<path d="M232.801 164.303H225.883V171.202H232.801V164.303Z" fill="#5A5855"/>
<path d="M211.281 164.303H204.362V171.202H211.281V164.303Z" fill="#5A5855"/>
<path d="M200.521 164.303H193.603V171.202H200.521V164.303Z" fill="#5A5855"/>
<path d="M189.761 164.303H182.843V171.202H189.761V164.303Z" fill="#5A5855"/>
<path d="M243.561 164.303H236.643V171.202H243.561V164.303Z" fill="#5A5855"/>
<path d="M254.342 164.303H247.424V171.202H254.342V164.303Z" fill="#5A5855"/>
<path d="M265.102 164.303H258.184V178.631H265.102V164.303Z" fill="#5A5855"/>
<path d="M241.198 130H234.279V136.9H241.198V130Z" fill="#5A5855"/>
<path d="M251.959 130H245.04V136.9H251.959V130Z" fill="#5A5855"/>
<path d="M230.438 130H223.52V136.9H230.438V130Z" fill="#5A5855"/>
<path d="M219.678 130H212.76V136.9H219.678V130Z" fill="#5A5855"/>
<path d="M208.919 130H202V136.9H208.919V130Z" fill="#5A5855"/>
<path d="M262.718 130H255.8V136.9H262.718V130Z" fill="#5A5855"/>
<path d="M440 190.42C440 196.938 434.694 202.251 428.136 202.251H12.3799C9.09039 202.251 6.1404 200.917 3.97567 198.78C1.83216 196.642 0.495117 193.679 0.495117 190.399C0.495117 190.145 0.495117 189.869 0.537562 189.615C0.940797 183.435 6.05551 178.567 12.3587 178.567H428.115C431.405 178.567 434.355 179.901 436.519 182.038C438.493 184.007 439.766 186.674 439.957 189.615C440 189.891 440 190.166 440 190.42Z" fill="#88CF68"/>
<path d="M439.957 189.637H0.558594C0.961829 183.457 6.07655 178.589 12.3797 178.589H428.136C431.426 178.589 434.376 179.922 436.54 182.06C438.493 184.028 439.766 186.674 439.957 189.637Z" fill="#776342"/>
<path d="M365.232 147.963C365.232 159.244 355.512 161.741 351.14 161.741C346.768 161.741 337.048 159.244 337.048 147.963C337.048 136.682 345.813 120.893 351.14 120.872C356.467 120.83 365.232 136.661 365.232 147.963Z" fill="#7BAE42"/>
<path d="M356.403 154.143C352.053 154.143 342.311 151.646 342.311 140.365C342.311 134.905 344.349 128.407 347.065 123.158C342.248 127.941 337.069 139.286 337.069 147.963C337.069 159.244 346.789 161.742 351.161 161.742C355.003 161.742 362.982 159.816 364.85 151.646C361.921 153.551 358.526 154.143 356.403 154.143Z" fill="#679D42"/>
<path d="M351.946 178.821H350.354V151.413L350.949 142.905L351.946 146.439V178.821Z" fill="#7E6729"/>
<path d="M351.946 151.413L356.276 147.117L355.554 149.466L351.946 154.143V151.413Z" fill="#7E6729"/>
<path d="M350.355 154.778L345.367 150.63L345.898 152.429L350.355 157.508V154.778Z" fill="#7E6729"/>
<path d="M385.584 158.757C385.584 167.202 377.35 169.064 373.657 169.064C369.964 169.064 361.729 167.202 361.729 158.757C361.729 150.312 369.157 138.481 373.657 138.46C378.156 138.439 385.584 150.291 385.584 158.757Z" fill="#96C43D"/>
<path d="M378.092 163.392C374.4 163.392 366.165 161.529 366.165 153.085C366.165 149 367.905 144.132 370.197 140.195C366.123 143.793 361.729 152.259 361.729 158.778C361.729 167.223 369.964 169.085 373.657 169.085C376.904 169.085 383.674 167.646 385.244 161.529C382.761 162.947 379.896 163.392 378.092 163.392Z" fill="#7FB141"/>
<path d="M374.336 178.821H372.978V161.339L373.466 154.968L374.336 157.995V178.821Z" fill="#7E6729"/>
<path d="M374.335 161.339L377.985 158.122L377.179 160.133L374.335 163.392V161.339Z" fill="#7E6729"/>
<path d="M372.977 163.857L368.754 160.556L369.178 162.101L372.977 165.889V163.857Z" fill="#7E6729"/>
<path d="M370.686 170.101C370.686 176.006 364.871 177.319 362.26 177.319C359.65 177.319 353.835 176.006 353.835 170.101C353.835 164.196 359.077 155.942 362.26 155.921C365.444 155.9 370.686 164.196 370.686 170.101Z" fill="#B2D235"/>
<path d="M365.401 173.361C362.791 173.361 356.976 172.049 356.976 166.144C356.976 163.286 358.207 159.879 359.82 157.127C356.955 159.646 353.835 165.572 353.835 170.123C353.835 176.028 359.65 177.34 362.26 177.34C364.553 177.34 369.328 176.324 370.431 172.049C368.712 173.043 366.675 173.361 365.401 173.361Z" fill="#95C43D"/>
<path d="M362.748 178.758H361.814V172.345L362.154 167.9L362.748 171.414V178.758Z" fill="#7E6729"/>
<path d="M362.748 172.345L365.337 170.102L362.748 173.784V172.345Z" fill="#7E6729"/>
<path d="M361.815 174.101L358.822 172.578L361.815 175.541V174.101Z" fill="#7E6729"/>
<path d="M347.617 170.101C347.617 176.006 341.802 177.319 339.191 177.319C336.581 177.319 330.766 176.006 330.766 170.101C330.766 164.196 336.008 155.942 339.191 155.921C342.375 155.9 347.617 164.196 347.617 170.101Z" fill="#B2D235"/>
<path d="M342.332 173.361C339.722 173.361 333.907 172.049 333.907 166.144C333.907 163.286 335.138 159.879 336.75 157.127C333.885 159.646 330.766 165.572 330.766 170.123C330.766 176.028 336.581 177.34 339.191 177.34C341.483 177.34 346.258 176.324 347.362 172.049C345.643 173.043 343.605 173.361 342.332 173.361Z" fill="#95C43D"/>
<path d="M339.68 178.758H338.725V172.345L339.085 167.9L339.68 171.414V178.758Z" fill="#7E6729"/>
<path d="M339.68 172.345L342.248 170.102L339.68 173.784V172.345Z" fill="#7E6729"/>
<path d="M338.725 174.101L335.732 172.578L338.725 175.541V174.101Z" fill="#7E6729"/>
<path d="M33.4969 232.707H212.788C210.687 232.707 208.968 234.421 208.968 236.517C208.968 238.612 210.687 240.326 212.788 240.326H33.4969C31.3958 240.326 29.6768 238.612 29.6768 236.517C29.6768 234.421 31.3958 232.707 33.4969 232.707Z" fill="#47B4BC"/>
<path d="M144.345 244.136C144.345 242.041 142.625 240.327 140.524 240.327H247.297C249.398 240.327 251.117 242.041 251.117 244.136C251.117 246.232 249.398 247.946 247.297 247.946H140.524C142.625 247.946 144.345 246.232 144.345 244.136Z" fill="#47B4BC"/>
<path d="M57.6482 247.946H173.674C171.573 247.946 169.854 249.66 169.854 251.755C169.854 253.851 171.573 255.565 173.674 255.565H57.6482C55.5472 255.565 53.8281 253.851 53.8281 251.755C53.8281 249.66 55.5472 247.946 57.6482 247.946Z" fill="#47B4BC"/>
<path d="M110.388 259.354C110.388 257.258 108.668 255.544 106.567 255.544H200.903C203.004 255.544 204.723 257.258 204.723 259.354C204.723 261.449 203.004 263.163 200.903 263.163H106.567C108.668 263.163 110.388 261.449 110.388 259.354Z" fill="#47B4BC"/>
<path d="M98.4813 263.164H136.98C139.081 263.164 140.8 264.878 140.8 266.973C140.8 269.069 139.081 270.783 136.98 270.783H98.4813C96.3802 270.783 94.6611 269.069 94.6611 266.973C94.6611 264.878 96.3802 263.164 98.4813 263.164Z" fill="#47B4BC"/>
<path d="M136.767 278.381H154.276C156.377 278.381 158.096 280.095 158.096 282.191C158.096 284.286 156.377 286 154.276 286H136.767C134.666 286 132.947 284.286 132.947 282.191C132.947 280.095 134.666 278.381 136.767 278.381Z" fill="#47B4BC"/>
<path d="M195.024 228.898C195.024 226.802 193.305 225.088 191.204 225.088H241.396C243.497 225.088 245.216 226.802 245.216 228.898C245.216 230.993 243.497 232.707 241.396 232.707H191.204C193.305 232.707 195.024 230.993 195.024 228.898Z" fill="#47B4BC"/>
<path d="M14.7996 225.109H171.998C169.896 225.109 168.177 226.823 168.177 228.919C168.177 231.014 169.896 232.728 171.998 232.728H14.7996C12.6985 232.728 10.9795 231.014 10.9795 228.919C10.9795 226.823 12.6985 225.109 14.7996 225.109Z" fill="#47B4BC"/>
<path d="M52.0458 221.912V221.045C52.0458 219.268 50.7936 217.801 49.1807 217.534C49.3504 217.512 49.5202 217.49 49.7112 217.49H64.4187C62.3176 217.49 60.5986 219.29 60.5986 221.49C60.5986 223.69 62.3176 225.49 64.4187 225.49H49.7112C49.5415 225.49 49.3504 225.468 49.1807 225.445C50.7936 225.156 52.0458 223.69 52.0458 221.912Z" fill="#47B4BC"/>
<path d="M79.8689 221.49C79.8689 219.29 78.1499 217.49 76.0488 217.49H275.523C277.39 217.49 278.918 219.09 278.918 221.045V221.912C278.918 223.868 277.39 225.468 275.523 225.468H76.0488C78.1499 225.49 79.8689 223.69 79.8689 221.49Z" fill="#47B4BC"/>
<path d="M89.6417 210H304.481C305.922 210 307.102 211.8 307.102 214C307.102 216.2 305.922 218 304.481 218H89.6417C88.2001 218 87.0205 216.2 87.0205 214C87.0205 211.8 88.2001 210 89.6417 210Z" fill="#3A939A"/>
<path d="M356.386 209.955H273.782C274.574 209.955 275.221 211.755 275.221 213.955C275.221 216.155 274.574 217.955 273.782 217.955H356.386C357.177 217.955 357.825 216.155 357.825 213.955C357.825 211.755 357.177 209.955 356.386 209.955Z" fill="#47B4BC"/>
<path d="M6.90213 209.955H122.463C121.356 209.955 120.45 211.755 120.45 213.955C120.45 216.155 121.356 217.955 122.463 217.955H6.90213C5.79473 217.955 4.88867 216.155 4.88867 213.955C4.88867 211.755 5.79473 209.955 6.90213 209.955Z" fill="#47B4BC"/>
<path d="M233.691 240H162.809C160.714 240 159 241.8 159 244C159 246.2 160.714 248 162.809 248H233.691C235.786 248 237.5 246.2 237.5 244C237.5 241.8 235.786 240 233.691 240Z" fill="#3A939A"/>
<path d="M242.191 233H149.309C147.214 233 145.5 234.8 145.5 237C145.5 239.2 147.214 241 149.309 241H242.191C244.286 241 246 239.2 246 237C246 234.8 244.286 233 242.191 233Z" fill="#3A939A"/>
<path d="M253.191 226H140.309C138.214 226 136.5 227.8 136.5 230C136.5 232.2 138.214 234 140.309 234H253.191C255.286 234 257 232.2 257 230C257 227.8 255.286 226 253.191 226Z" fill="#3A939A"/>
<path d="M275.191 218L118.809 218C116.714 218 115 219.8 115 222C115 224.2 116.714 226 118.809 226H275.191C277.286 226 279 224.2 279 222C279 219.8 277.286 218 275.191 218Z" fill="#3A939A"/>
<path d="M324.5 202L89.5001 202C87.4053 202 85.6914 203.8 85.6914 206C85.6914 208.2 87.4053 210 89.5001 210L324.5 210C326.595 210 328.309 208.2 328.309 206C328.309 203.8 326.595 202 324.5 202Z" fill="#3A939A"/>
<path d="M249.524 222.019C252.7 222.019 255.275 219.555 255.275 216.516C255.275 213.477 252.7 211.013 249.524 211.013C246.347 211.013 243.772 213.477 243.772 216.516C243.772 219.555 246.347 222.019 249.524 222.019Z" fill="#ECF0F1"/>
<path d="M232.758 236.03C234.996 236.03 236.811 234.287 236.811 232.136C236.811 229.985 234.996 228.242 232.758 228.242C230.519 228.242 228.704 229.985 228.704 232.136C228.704 234.287 230.519 236.03 232.758 236.03Z" fill="#ECF0F1"/>
<path d="M155.125 228.834C159.028 228.834 162.192 225.811 162.192 222.083C162.192 218.354 159.028 215.331 155.125 215.331C151.222 215.331 148.058 218.354 148.058 222.083C148.058 225.811 151.222 228.834 155.125 228.834Z" fill="#ECF0F1"/>
<path d="M189.039 214.865C191.278 214.865 193.092 213.122 193.092 210.971C193.092 208.82 191.278 207.077 189.039 207.077C186.8 207.077 184.985 208.82 184.985 210.971C184.985 213.122 186.8 214.865 189.039 214.865Z" fill="#ECF0F1"/>
<path d="M178.64 56.1714C181.875 56.1714 184.497 53.6604 184.497 50.5628C184.497 47.4652 181.875 44.9541 178.64 44.9541C175.405 44.9541 172.782 47.4652 172.782 50.5628C172.782 53.6604 175.405 56.1714 178.64 56.1714Z" fill="#87D5F7"/>
<path d="M166.606 44.8273C168.892 44.8273 170.745 43.0553 170.745 40.8694C170.745 38.6836 168.892 36.9116 166.606 36.9116C164.321 36.9116 162.468 38.6836 162.468 40.8694C162.468 43.0553 164.321 44.8273 166.606 44.8273Z" fill="#87D5F7"/>
<path d="M317.523 18.0326C321.285 18.0326 324.335 15.1141 324.335 11.5139C324.335 7.91367 321.285 4.99512 317.523 4.99512C313.76 4.99512 310.71 7.91367 310.71 11.5139C310.71 15.1141 313.76 18.0326 317.523 18.0326Z" fill="#87D5F7"/>
<path d="M82.2881 93.0409C86.0506 93.0409 89.1007 90.1224 89.1007 86.5222C89.1007 82.922 86.0506 80.0034 82.2881 80.0034C78.5257 80.0034 75.4756 82.922 75.4756 86.5222C75.4756 90.1224 78.5257 93.0409 82.2881 93.0409Z" fill="#87D5F7"/>
</svg>
