<svg width="41" height="40" viewBox="0 0 41 40" fill="none" xmlns="http://www.w3.org/2000/svg">
<path d="M15.3334 32.7984C15.4164 33.7014 15.7935 34.5619 16.417 35.271C17.0406 35.9801 17.8826 36.506 18.8366 36.7822C19.7906 37.0584 20.8137 37.0725 21.7765 36.8227C22.7393 36.5729 23.5986 36.0705 24.2458 35.3788C24.8929 34.6872 25.2989 33.8376 25.4122 32.9373C25.5256 32.037 25.3412 31.1265 24.8826 30.321C24.4239 29.5154 23.7115 28.851 22.8354 28.4117C22.5949 28.2912 22.345 28.189 22.0884 28.1058C20.9814 27.7471 19.9608 26.8608 19.9608 25.6971V20.6665" stroke="#008512" stroke-width="1.7" stroke-linecap="round"/>
<path d="M26.2282 16.212L21.2281 20.101C20.5058 20.6627 19.4945 20.6627 18.7723 20.101L13.7721 16.212C13.2849 15.8331 13 15.2505 13 14.6333V4C13 2.89543 13.8954 2 15 2H25.0004C26.1049 2 27.0004 2.89543 27.0004 4V14.6333C27.0004 15.2505 26.7154 15.8331 26.2282 16.212Z" stroke="#008512" stroke-width="1.7"/>
</svg>
