<svg width="16" height="19" viewBox="0 0 16 19" fill="none" xmlns="http://www.w3.org/2000/svg">
<rect x="0.833267" y="1.09633" width="14.4259" height="16.5896" rx="2.04" stroke="#FEFEFE" stroke-width="0.72"/>
<path d="M3.03357 7.50689H13.0583C13.2235 7.50689 13.3572 7.37296 13.3572 7.20794V3.13049C13.3572 2.96527 13.2235 2.83154 13.0583 2.83154H3.03357C2.86835 2.83154 2.73462 2.96527 2.73462 3.13049V7.20774C2.73462 7.37296 2.86835 7.50689 3.03357 7.50689Z" fill="#FEFEFE"/>
<path d="M5.16885 8.96191H3.13879C2.97357 8.96191 2.83984 9.09584 2.83984 9.26086V11.2911C2.83984 11.4561 2.97357 11.5901 3.13879 11.5901H5.16885C5.33406 11.5901 5.46779 11.4561 5.46779 11.2911V9.26086C5.46779 9.09584 5.33386 8.96191 5.16885 8.96191Z" fill="#FEFEFE"/>
<path d="M5.16885 12.8955H3.13879C2.97357 12.8955 2.83984 13.0294 2.83984 13.1945V15.2245C2.83984 15.3895 2.97357 15.5235 3.13879 15.5235H5.16885C5.33406 15.5235 5.46779 15.3895 5.46779 15.2245V13.1945C5.46779 13.0292 5.33386 12.8955 5.16885 12.8955Z" fill="#FEFEFE"/>
<path d="M12.9526 8.96191H10.9228C10.7575 8.96191 10.6238 9.09584 10.6238 9.26086V11.2911C10.6238 11.4561 10.7575 11.5901 10.9228 11.5901H12.9528C13.118 11.5901 13.2518 11.4561 13.2518 11.2911V9.26086C13.2516 9.09584 13.1178 8.96191 12.9526 8.96191Z" fill="#FEFEFE"/>
<path d="M12.9526 12.8955H10.9228C10.7575 12.8955 10.6238 13.0294 10.6238 13.1945V15.2245C10.6238 15.3895 10.7575 15.5235 10.9228 15.5235H12.9528C13.118 15.5235 13.2518 15.3895 13.2518 15.2245V13.1945C13.2516 13.0292 13.1178 12.8955 12.9526 12.8955Z" fill="#FEFEFE"/>
<path d="M9.12726 8.89502H7.09781C6.93259 8.89502 6.79886 9.02895 6.79886 9.19397V11.2242C6.79886 11.3892 6.93259 11.5232 7.09781 11.5232H9.12726C9.29248 11.5232 9.42621 11.3892 9.42621 11.2242V9.19397C9.42621 9.02895 9.29228 8.89502 9.12726 8.89502Z" fill="#FEFEFE"/>
<path d="M9.12726 12.8291H7.09781C6.93259 12.8291 6.79886 12.963 6.79886 13.128V15.1585C6.79886 15.3235 6.93259 15.4575 7.09781 15.4575H9.12726C9.29248 15.4575 9.42621 15.3235 9.42621 15.1585V13.128C9.42621 12.963 9.29228 12.8291 9.12726 12.8291Z" fill="#FEFEFE"/>
</svg>
