<svg width="40" height="27" viewBox="0 0 40 27" fill="none" xmlns="http://www.w3.org/2000/svg">
<path d="M36.9002 0H3.10017C1.39085 0 -3.05176e-05 1.39088 -3.05176e-05 3.1002V5.17214V9.63705V23.0614C-3.05176e-05 24.7707 1.39085 26.1611 3.10017 26.1611H36.9002C38.6095 26.1611 40 24.7707 40 23.0614V9.63705V5.17214V3.1002C40 1.39088 38.6095 0 36.9002 0ZM1.287 3.1002C1.28743 2.10027 2.10024 1.28746 3.09974 1.28746H36.8998C37.8993 1.28746 38.7121 2.1007 38.7121 3.1002V4.52842H1.287V3.1002ZM38.7125 23.0609C38.7125 24.06 37.8993 24.8732 36.9002 24.8732H3.10017C2.10067 24.8732 1.28743 24.06 1.28743 23.0609V10.2803H38.7125V23.0609ZM38.7125 8.99289H1.28743V5.81544H38.7125V8.99289Z" fill="#008512"/>
<path d="M6.22136 22.3357C7.45947 22.3357 8.46626 21.3294 8.46626 20.0926C8.46626 18.8549 7.45947 17.8477 6.22136 17.8477C4.98412 17.8477 3.97733 18.8549 3.97733 20.0926C3.97733 21.3294 4.98412 22.3357 6.22136 22.3357ZM6.22136 19.1351C6.74922 19.1351 7.1788 19.5647 7.1788 20.0926C7.1788 20.6195 6.74922 21.0483 6.22136 21.0483C5.69393 21.0483 5.26478 20.6195 5.26478 20.0926C5.26478 19.5647 5.69393 19.1351 6.22136 19.1351Z" fill="#008512"/>
<path d="M11.0218 20.8119H29.1595C29.5153 20.8119 29.8033 20.5239 29.8033 20.1681C29.8033 19.8124 29.5153 19.5244 29.1595 19.5244H11.0218C10.6661 19.5244 10.3781 19.8124 10.3781 20.1681C10.3781 20.5239 10.6661 20.8119 11.0218 20.8119Z" fill="#008512"/>
</svg>
