<svg width="41" height="40" viewBox="0 0 41 40" fill="none" xmlns="http://www.w3.org/2000/svg">
<path d="M38.0364 4.10023C37.8998 3.96355 37.7175 3.87244 37.5353 3.87244H30.6105V0.683371C30.6105 0.318907 30.2916 0 29.9271 0H10.4738C10.1093 0 9.79043 0.318907 9.79043 0.683371V3.87244H2.68337C2.50114 3.87244 2.31891 3.96355 2.18223 4.10023C2.04556 4.2369 2 4.41913 2 4.60137C2 4.73804 2.13667 7.65376 3.18451 11.0251C4.64237 15.5353 7.10251 18.7244 10.3827 20.1822C11.4761 23.8269 13.9818 26.697 17.1253 27.836V27.9727C17.1253 31.754 14.2551 34.7608 10.5649 34.7608C10.2005 34.7608 9.88155 35.0797 9.88155 35.4442V39.3166C9.88155 39.6811 10.2005 40 10.5649 40H29.9271C30.2916 40 30.6105 39.6811 30.6105 39.3166V35.4442C30.6105 35.0797 30.2916 34.7608 29.9271 34.7608C26.1913 34.7608 23.139 31.7084 23.139 27.9727V27.8816C26.4191 26.7426 28.9704 23.8269 30.0638 20.0911C33.2073 18.5877 35.6219 15.4442 37.0342 11.0251C38.1276 7.65376 38.2187 4.69248 38.2187 4.60137C38.2642 4.41913 38.1731 4.2369 38.0364 4.10023ZM3.4123 5.23918H9.79043V16.1731C9.79043 16.9476 9.83599 17.6765 9.97267 18.4055C4.77904 15.3075 3.64009 7.6082 3.4123 5.23918ZM29.2437 36.082V38.5877H11.2483V36.082C15.2574 35.7631 18.3554 32.4374 18.4465 28.2005C18.9932 28.2916 19.5854 28.3827 20.1777 28.3827C20.7244 28.3827 21.2711 28.3371 21.7722 28.246C21.9544 32.3918 25.1891 35.7631 29.2437 36.082ZM22 26.8337C21.4077 26.9704 20.8155 27.0615 20.2232 27.0615C19.5399 27.0615 18.8565 26.9704 18.2187 26.7882C18.082 26.7426 17.8542 26.6515 17.7631 26.6515C13.9818 25.3759 11.1572 21.1845 11.1572 16.2187V1.4123H29.2437V4.14579V5.01139V16.2187C29.2437 21.1845 26.4191 25.3759 22.5923 26.6515M30.4738 18.3144C30.5649 17.631 30.656 16.9021 30.656 16.1731V5.23918H36.8519C36.6241 7.6082 35.5308 15.0797 30.4738 18.3144Z" fill="#008512"/>
<path d="M26.7837 9.56768L23.0479 9.02098L21.3623 5.60412C21.18 5.23966 20.77 4.96631 20.36 4.96631C19.95 4.96631 19.5399 5.1941 19.3577 5.60412L17.6721 9.02098L13.9363 9.56768C13.5263 9.61323 13.1618 9.93214 13.0251 10.3422C12.8885 10.7522 12.9796 11.2078 13.2985 11.4811L16.032 14.1235L15.3941 17.8592C15.303 18.2693 15.4853 18.6793 15.8497 18.9526C16.032 19.0893 16.2598 19.1804 16.5331 19.1804C16.7153 19.1804 16.8976 19.1349 17.0342 19.0438L20.4967 17.3125L23.7768 19.0438C24.1413 19.226 24.5969 19.226 24.9613 18.9526C25.3258 18.6793 25.4625 18.2693 25.4169 17.8592L24.7791 14.1235L27.5126 11.4811C27.8315 11.1622 27.9226 10.7522 27.7859 10.3422C27.5582 9.93214 27.2393 9.61323 26.7837 9.56768ZM23.5035 13.3946C23.3213 13.5312 23.2757 13.759 23.3213 13.9868L23.9591 17.5859L20.8156 15.9458C20.6333 15.8547 20.4055 15.8547 20.1777 15.9458L16.8064 17.6315L17.4443 13.9868C17.4898 13.759 17.3987 13.5312 17.262 13.3946L14.6652 10.8433L18.2643 10.2966C18.4921 10.251 18.6743 10.1144 18.7654 9.93214L20.36 6.65196L21.9545 9.93214C22.0456 10.1144 22.2279 10.2966 22.4557 10.2966L26.0547 10.8433L23.5035 13.3946Z" fill="#008512"/>
</svg>
