<svg width="30" height="31" viewBox="0 0 30 31" fill="none" xmlns="http://www.w3.org/2000/svg">
<path d="M19.7948 11.1138L9.88036 19.0056C9.6757 19.1685 9.6419 19.4667 9.80456 19.6714C9.89805 19.7888 10.0361 19.8501 10.1757 19.8501C10.2789 19.8501 10.3832 19.8166 10.4703 19.7472L20.3848 11.8554C20.5894 11.6924 20.6232 11.3942 20.4606 11.1896C20.2979 10.9849 19.9997 10.9508 19.7948 11.1138Z" fill="#008512"/>
<path d="M11.0874 14.1065C11.5137 14.418 12.0165 14.5812 12.5348 14.5812C12.6618 14.5812 12.79 14.5714 12.9179 14.5516C14.259 14.3428 15.1806 13.082 14.9725 11.7409C14.7637 10.3996 13.5022 9.47796 12.1618 9.68673C10.8205 9.89518 9.89886 11.156 10.1076 12.497C10.2084 13.1467 10.5561 13.7187 11.0874 14.1065ZM12.3071 10.6229C12.3854 10.6106 12.4634 10.6045 12.5405 10.6045C13.2736 10.6045 13.9198 11.1399 14.036 11.8865C14.1642 12.7115 13.5973 13.4872 12.7723 13.6154C12.3719 13.6776 11.9726 13.5804 11.6464 13.3416C11.3198 13.1031 11.1057 12.7513 11.0438 12.3518C10.9155 11.5268 11.4821 10.7511 12.3071 10.6229Z" fill="#008512"/>
<path d="M17.7482 16.2646C16.3904 16.2646 15.2856 17.3691 15.2856 18.7266C15.2856 20.0841 16.3904 21.1882 17.7482 21.1882C19.106 21.1882 20.2105 20.0837 20.2105 18.7266C20.2108 17.3691 19.106 16.2646 17.7482 16.2646ZM17.7482 20.2407C16.9128 20.2407 16.2332 19.5613 16.2332 18.7266C16.2332 17.8915 16.9128 17.2122 17.7482 17.2122C18.5836 17.2122 19.263 17.8915 19.263 18.7266C19.2633 19.5617 18.5836 20.2407 17.7482 20.2407Z" fill="#008512"/>
<path d="M27.2431 12.8214C26.3041 12.3537 25.3335 11.8698 25.0689 11.2445C24.7988 10.6062 25.1702 9.59042 25.5293 8.60817C26.017 7.27408 26.5217 5.89483 25.6061 4.97985C24.7053 4.07877 23.3693 4.3886 22.0769 4.68865C21.1515 4.90342 20.1946 5.12545 19.5439 4.85036C18.9104 4.58189 18.3924 3.76483 17.8915 2.97461C17.1818 1.85497 16.3777 0.585938 15.0006 0.585938C13.6211 0.585938 12.8324 1.88308 12.1366 3.02767C11.643 3.83968 11.1323 4.67949 10.499 4.94732C9.84935 5.22209 8.88131 4.97827 7.94486 4.74297C6.64266 4.41545 5.29625 4.07719 4.39423 4.97985C3.48336 5.89009 3.93184 7.27724 4.3658 8.61891C4.68322 9.5999 5.01105 10.6144 4.73912 11.2574C4.47445 11.8843 3.54652 12.3638 2.64923 12.8277C1.40737 13.4698 0 14.1975 0 15.5859C0 16.9699 1.35273 17.7267 2.54627 18.3944C3.40124 18.8725 4.28526 19.3671 4.55183 19.9969C4.82503 20.6428 4.53888 21.6355 4.26252 22.5953C3.88131 23.918 3.48715 25.2862 4.39423 26.1927C5.3291 27.1272 6.82774 26.3493 8.27712 25.596C9.33043 25.049 10.5246 24.4281 11.1455 24.6912C11.7516 24.9476 12.1578 26.1999 12.5163 27.3047C13.0393 28.9177 13.5806 30.5859 15.0009 30.5859C16.4228 30.5859 16.9462 28.9161 17.4522 27.3012C17.7996 26.193 18.1934 24.9366 18.7989 24.6808C19.4198 24.4183 20.6276 25.0408 21.6929 25.5904C23.1577 26.3462 24.6722 27.1272 25.6064 26.193C26.5226 25.277 26.0208 23.9171 25.5357 22.6016C25.1791 21.6345 24.8102 20.6346 25.0796 19.9969C25.3446 19.3706 26.312 18.8728 27.2475 18.3915C28.6008 17.6951 30.0003 16.9753 30.0003 15.5859C29.9994 14.195 28.598 13.4967 27.2431 12.8214ZM26.8132 17.5492C25.7277 18.1076 24.6052 18.6852 24.2063 19.6283C23.791 20.6112 24.2259 21.7899 24.6463 22.9298C25.0458 24.0131 25.4232 25.0361 24.9359 25.5231C24.4912 25.9681 23.2348 25.3203 22.1268 24.7487C20.8155 24.0721 19.4596 23.3729 18.4293 23.8084C17.4199 24.2351 16.9762 25.6501 16.5476 27.0186C16.144 28.3069 15.7264 29.6391 15.0006 29.6391C14.2688 29.6391 13.8358 28.304 13.417 27.0129C12.9755 25.6516 12.5191 24.2439 11.5144 23.8191C11.2915 23.7247 11.0539 23.6833 10.8054 23.6833C9.90399 23.6833 8.85857 24.2266 7.84 24.7556C6.74721 25.3238 5.50786 25.9675 5.0638 25.5231C4.55215 25.0117 4.85345 23.9657 5.17276 22.8581C5.49492 21.7397 5.82812 20.5834 5.42417 19.628C5.03095 18.6991 4.00291 18.124 3.00865 17.5678C1.94871 16.975 0.947508 16.4147 0.947508 15.5866C0.947508 14.7749 1.98535 14.2379 3.08445 13.6701C4.13114 13.1287 5.21382 12.5691 5.61178 11.6269C6.0211 10.6592 5.63799 9.47419 5.2672 8.32803C4.90525 7.2087 4.5632 6.15097 5.06412 5.65068C5.58651 5.12766 6.61992 5.38759 7.71398 5.66269C8.80172 5.93652 9.92736 6.2195 10.8682 5.82092C11.7829 5.43434 12.3745 4.46156 12.9464 3.52069C13.5674 2.49927 14.1539 1.53439 15.0006 1.53439C15.8562 1.53439 16.456 2.48095 17.0912 3.48279C17.6701 4.39587 18.2683 5.34022 19.175 5.72396C20.1096 6.11907 21.2188 5.86166 22.2914 5.61247C23.3794 5.36012 24.4072 5.12134 24.9365 5.65068C25.4245 6.13833 25.0433 7.18028 24.6399 8.28349C24.218 9.43819 23.7812 10.632 24.1968 11.6143C24.5979 12.5621 25.728 13.1256 26.8211 13.6701C27.9685 14.2421 29.0525 14.7821 29.0525 15.5866C29.0519 16.397 27.9644 16.9567 26.8132 17.5492Z" fill="#008512"/>
</svg>
