<svg width="41" height="40" viewBox="0 0 41 40" fill="none" xmlns="http://www.w3.org/2000/svg">
<g clip-path="url(#clip0_54_667)">
<mask id="path-1-inside-1_54_667" fill="white">
<path fill-rule="evenodd" clip-rule="evenodd" d="M40 12.1319C40 11.77 39.7066 11.4771 39.3452 11.4771H22.054H20.0864H0.654822C0.292924 11.4771 0 11.77 0 12.1319V23.4293C0 23.4582 0.00406078 23.486 0.00810864 23.5137L0.00916746 23.521L0.00810864 23.5282C0.00406078 23.5559 0 23.5837 0 23.6126V38.0248C0 38.3863 0.292924 38.6796 0.654822 38.6796H20.0864H39.3452C39.7066 38.6796 40 38.3863 40 38.0248V23.5445C40 23.5319 39.9984 23.5196 39.9967 23.5074C39.9958 23.5006 39.9949 23.4938 39.9943 23.4869C39.9949 23.4801 39.9958 23.4733 39.9967 23.4665C39.9984 23.4542 40 23.4419 40 23.4293V12.1319ZM38.6908 12.7867H19.4316H1.30964V37.3704H38.6908V12.7867Z"/>
</mask>
<path fill-rule="evenodd" clip-rule="evenodd" d="M40 12.1319C40 11.77 39.7066 11.4771 39.3452 11.4771H22.054H20.0864H0.654822C0.292924 11.4771 0 11.77 0 12.1319V23.4293C0 23.4582 0.00406078 23.486 0.00810864 23.5137L0.00916746 23.521L0.00810864 23.5282C0.00406078 23.5559 0 23.5837 0 23.6126V38.0248C0 38.3863 0.292924 38.6796 0.654822 38.6796H20.0864H39.3452C39.7066 38.6796 40 38.3863 40 38.0248V23.5445C40 23.5319 39.9984 23.5196 39.9967 23.5074C39.9958 23.5006 39.9949 23.4938 39.9943 23.4869C39.9949 23.4801 39.9958 23.4733 39.9967 23.4665C39.9984 23.4542 40 23.4419 40 23.4293V12.1319ZM38.6908 12.7867H19.4316H1.30964V37.3704H38.6908V12.7867Z" fill="#008512"/>
<path d="M0.00916746 23.521L0.503998 23.5927L0.514391 23.521L0.503998 23.4493L0.00916746 23.521ZM0.502858 23.6005C0.503204 23.5981 0.5036 23.5954 0.503998 23.5927L-0.485663 23.4493C-0.485967 23.4513 -0.486279 23.4535 -0.486641 23.456L0.502858 23.6005ZM0.503998 23.4493C0.5036 23.4465 0.503204 23.4438 0.502858 23.4414L-0.486641 23.586C-0.486279 23.5884 -0.485967 23.5906 -0.485663 23.5927L0.503998 23.4493ZM0.00916746 23.521L0.99872 23.6651L1.01973 23.521L0.99872 23.3768L0.00916746 23.521ZM39.9943 23.4869L38.9984 23.3964L38.9902 23.4869L38.9984 23.5775L39.9943 23.4869ZM38.6908 12.7867H39.6908V11.7867H38.6908V12.7867ZM1.30964 12.7867V11.7867H0.309643V12.7867H1.30964ZM1.30964 37.3704H0.309643V38.3704H1.30964V37.3704ZM38.6908 37.3704V38.3704H39.6908V37.3704H38.6908ZM39.9967 23.4665L40.9881 23.5981L40.9881 23.5978L39.9967 23.4665ZM39.9967 23.5074L40.9881 23.376L40.9881 23.3758L39.9967 23.5074ZM0.00810864 23.5282L0.997605 23.6728L0.997661 23.6724L0.00810864 23.5282ZM0.00810864 23.5137L0.997661 23.3695L0.997605 23.3691L0.00810864 23.5137ZM41 12.1319C41 11.2173 40.2585 10.4771 39.3452 10.4771V12.4771C39.1548 12.4771 39 12.3227 39 12.1319H41ZM39.3452 10.4771H22.054V12.4771H39.3452V10.4771ZM22.054 10.4771H20.0864V12.4771H22.054V10.4771ZM20.0864 10.4771H0.654822V12.4771H20.0864V10.4771ZM0.654822 10.4771C-0.259361 10.4771 -1 11.2177 -1 12.1319H1C1 12.3223 0.845208 12.4771 0.654822 12.4771V10.4771ZM-1 12.1319V23.4293H1V12.1319H-1ZM-1 23.6126V38.0248H1V23.6126H-1ZM-1 38.0248C-1 38.9381 -0.259795 39.6796 0.654822 39.6796V37.6796C0.845642 37.6796 1 37.8344 1 38.0248H-1ZM0.654822 39.6796H20.0864V37.6796H0.654822V39.6796ZM20.0864 39.6796H39.3452V37.6796H20.0864V39.6796ZM39.3452 39.6796C40.2589 39.6796 41 38.9386 41 38.0248H39C39 37.834 39.1544 37.6796 39.3452 37.6796V39.6796ZM41 38.0248V23.5445H39V38.0248H41ZM41 23.4293V12.1319H39V23.4293H41ZM19.4316 13.7867H38.6908V11.7867H19.4316V13.7867ZM1.30964 13.7867H19.4316V11.7867H1.30964V13.7867ZM2.30964 37.3704V12.7867H0.309643V37.3704H2.30964ZM37.6908 12.7867V37.3704H39.6908V12.7867H37.6908ZM38.6908 36.3704H1.30964V38.3704H38.6908V36.3704ZM39 23.4293C39 23.3933 39.0023 23.3652 39.0038 23.3499C39.0051 23.3367 39.0066 23.3263 39.0054 23.3351L40.9881 23.5978C40.9884 23.5955 41 23.5185 41 23.4293H39ZM39.0054 23.3349C39.0049 23.3387 39.0012 23.3657 38.9984 23.3964L40.9902 23.5775C40.9893 23.5873 40.9885 23.5946 40.9881 23.5978C40.9877 23.6004 40.9875 23.6021 40.9881 23.5981L39.0054 23.3349ZM38.9984 23.5775C39.0012 23.6082 39.0049 23.6351 39.0054 23.639L40.9881 23.3758C40.9875 23.3717 40.9877 23.3734 40.9881 23.376C40.9885 23.3792 40.9893 23.3865 40.9902 23.3964L38.9984 23.5775ZM39.0054 23.6387C39.0066 23.6475 39.0051 23.6371 39.0038 23.6239C39.0023 23.6087 39 23.5806 39 23.5445H41C41 23.4553 40.9884 23.3784 40.9881 23.376L39.0054 23.6387ZM1 23.6126C1 23.6446 0.997766 23.668 0.996706 23.6778C0.996169 23.6828 0.995788 23.6855 0.995932 23.6844C0.996148 23.6828 0.996482 23.6805 0.997605 23.6728L-0.981387 23.3837C-0.983893 23.4008 -1 23.4995 -1 23.6126H1ZM0.997605 23.3691C0.996482 23.3615 0.996148 23.3591 0.995932 23.3575C0.995788 23.3565 0.996169 23.3592 0.996706 23.3641C0.997766 23.3739 1 23.3974 1 23.4293H-1C-1 23.5424 -0.983893 23.6411 -0.981387 23.6583L0.997605 23.3691ZM-0.981444 23.6579L-0.980385 23.6651L0.99872 23.3768L0.997661 23.3695L-0.981444 23.6579ZM-0.980385 23.3768L-0.981444 23.3841L0.997661 23.6724L0.99872 23.6651L-0.980385 23.3768Z" fill="#008512" mask="url(#path-1-inside-1_54_667)"/>
<path d="M31.5119 32.8592H32.0119V32.3592V28.6743V28.1743H31.5119H28.0776H27.5776V28.6743V32.3592V32.8592H28.0776H31.5119ZM27.4228 27.8643H32.1667C32.2523 27.8643 32.3216 27.9335 32.3216 28.0191V33.0136C32.3216 33.0989 32.2521 33.1684 32.1667 33.1684H27.4228C27.3374 33.1684 27.2679 33.0989 27.2679 33.0136V28.0191C27.2679 27.9338 27.3374 27.8643 27.4228 27.8643Z" fill="#008512" stroke="#008512"/>
<path d="M31.5119 21.7748H32.0119V21.2748V17.5899V17.0899H31.5119H28.0776H27.5776V17.5899V21.2748V21.7748H28.0776H31.5119ZM27.4228 16.7798H32.1667C32.2523 16.7798 32.3216 16.8491 32.3216 16.9346V21.9292C32.3216 22.0145 32.2521 22.084 32.1667 22.084H27.4228C27.3374 22.084 27.2679 22.0145 27.2679 21.9292V16.9346C27.2679 16.8493 27.3374 16.7798 27.4228 16.7798Z" fill="#008512" stroke="#008512"/>
<path d="M12.1666 32.8587H12.6666V32.3587V28.6734V28.1734H12.1666H8.73097H8.23097V28.6734V32.3587V32.8587H8.73097H12.1666ZM8.07615 27.8633H12.8214C12.907 27.8633 12.9762 27.9326 12.9762 28.0181V33.0131C12.9762 33.0986 12.907 33.1679 12.8214 33.1679H8.07615C7.99061 33.1679 7.92133 33.0986 7.92133 33.0131V28.0181C7.92133 27.9326 7.99061 27.8633 8.07615 27.8633Z" fill="#008512" stroke="#008512"/>
<path d="M21.8489 32.8587H22.3489V32.3587V28.6734V28.1734H21.8489H18.4132H17.9132V28.6734V32.3587V32.8587H18.4132H21.8489ZM17.7584 27.8633H22.5037C22.5892 27.8633 22.6585 27.9326 22.6585 28.0181V33.0131C22.6585 33.0986 22.5892 33.1679 22.5037 33.1679H17.7584C17.6729 33.1679 17.6036 33.0986 17.6036 33.0131V28.0181C17.6036 27.9326 17.6729 27.8633 17.7584 27.8633Z" fill="#008512" stroke="#008512"/>
<path d="M12.1666 21.7747H12.6666V21.2747V17.5894V17.0894H12.1666H8.73097H8.23097V17.5894V21.2747V21.7747H8.73097H12.1666ZM8.07615 16.7793H12.8214C12.907 16.7793 12.9762 16.8486 12.9762 16.9341V21.9291C12.9762 22.0146 12.907 22.0839 12.8214 22.0839H8.07615C7.99061 22.0839 7.92133 22.0146 7.92133 21.9291V16.9341C7.92133 16.8486 7.99061 16.7793 8.07615 16.7793Z" fill="#008512" stroke="#008512"/>
<path d="M21.8489 21.7747H22.3489V21.2747V17.5894V17.0894H21.8489H18.4132H17.9132V17.5894V21.2747V21.7747H18.4132H21.8489ZM17.7584 16.7793H22.5037C22.5892 16.7793 22.6585 16.8486 22.6585 16.9341V21.9291C22.6585 22.0146 22.5892 22.0839 22.5037 22.0839H17.7584C17.6729 22.0839 17.6036 22.0146 17.6036 21.9291V16.9341C17.6036 16.8486 17.6729 16.7793 17.7584 16.7793Z" fill="#008512" stroke="#008512"/>
<path d="M19 12V6.5M19 6.5V2.14691C19 1.54047 19.5354 1.07362 20.1362 1.15623L28.1362 2.25623C28.6312 2.32429 29 2.74726 29 3.24691V6.72809C29 7.33453 28.4646 7.80138 27.8638 7.71877L19 6.5Z" stroke="#008512" stroke-width="1.2"/>
</g>
<defs>
<clipPath id="clip0_54_667">
<rect width="40.0012" height="40" fill="white" transform="translate(0.00244141)"/>
</clipPath>
</defs>
</svg>
