<svg width="12" height="16" viewBox="0 0 12 16" fill="none" xmlns="http://www.w3.org/2000/svg">
<g clip-path="url(#clip0_84_27822)">
<path d="M6 8.82429C5.79069 8.82175 5.58565 8.88575 5.41249 9.00767C5.23933 9.12959 5.10635 9.30358 5.03146 9.50622C4.95657 9.70886 4.94336 9.93042 4.9936 10.1411C5.04385 10.3517 5.15514 10.5414 5.3125 10.6845V11.6752C5.3125 11.8642 5.38493 12.0455 5.51386 12.1791C5.6428 12.3128 5.81766 12.3879 6 12.3879C6.18234 12.3879 6.3572 12.3128 6.48614 12.1791C6.61507 12.0455 6.6875 11.8642 6.6875 11.6752V10.6845C6.84486 10.5414 6.95615 10.3517 7.0064 10.1411C7.05664 9.93042 7.04343 9.70886 6.96854 9.50622C6.89365 9.30358 6.76067 9.12959 6.58751 9.00767C6.41435 8.88575 6.20931 8.82175 6 8.82429ZM9.4375 5.97341V4.54797C9.4375 3.60285 9.07534 2.69643 8.43068 2.02813C7.78602 1.35982 6.91168 0.984375 6 0.984375C5.08832 0.984375 4.21398 1.35982 3.56932 2.02813C2.92466 2.69643 2.5625 3.60285 2.5625 4.54797V5.97341C2.01549 5.97341 1.49089 6.19868 1.10409 6.59966C0.717299 7.00064 0.5 7.54449 0.5 8.11157V13.1006C0.5 13.6677 0.717299 14.2115 1.10409 14.6125C1.49089 15.0135 2.01549 15.2388 2.5625 15.2388H9.4375C9.98451 15.2388 10.5091 15.0135 10.8959 14.6125C11.2827 14.2115 11.5 13.6677 11.5 13.1006V8.11157C11.5 7.54449 11.2827 7.00064 10.8959 6.59966C10.5091 6.19868 9.98451 5.97341 9.4375 5.97341ZM3.9375 4.54797C3.9375 3.9809 4.1548 3.43705 4.54159 3.03607C4.92839 2.63508 5.45299 2.40981 6 2.40981C6.54701 2.40981 7.07161 2.63508 7.45841 3.03607C7.8452 3.43705 8.0625 3.9809 8.0625 4.54797V5.97341H3.9375V4.54797ZM10.125 13.1006C10.125 13.2896 10.0526 13.4709 9.92364 13.6046C9.79471 13.7382 9.61984 13.8133 9.4375 13.8133H2.5625C2.38016 13.8133 2.2053 13.7382 2.07636 13.6046C1.94743 13.4709 1.875 13.2896 1.875 13.1006V8.11157C1.875 7.92254 1.94743 7.74126 2.07636 7.6076C2.2053 7.47394 2.38016 7.39885 2.5625 7.39885H9.4375C9.61984 7.39885 9.79471 7.47394 9.92364 7.6076C10.0526 7.74126 10.125 7.92254 10.125 8.11157V13.1006Z" fill="#008512"/>
</g>
<defs>
<clipPath id="clip0_84_27822">
<rect width="12" height="15" fill="white" transform="translate(0 0.585938)"/>
</clipPath>
</defs>
</svg>
