<svg xmlns="http://www.w3.org/2000/svg" width="41" height="26" fill="none" viewBox="0 0 41 26"><path stroke="#FEFEFE" stroke-width="1.926" d="M29.6456 11.2808V5.28154C29.6456 3.42847 28.1434 1.92627 26.2903 1.92627H17.5667C15.7136 1.92627 14.2113 3.42847 14.2113 5.28154V21.1855M14.2113 7.085L6.11254 9.86091C4.75968 10.3278 3.8519 11.6015 3.8519 13.0326V21.1855M26.963 21.1855H14.2113M14.2113 21.1855H3.8519M3.8519 21.1855H0.963013"/><path fill="#FEFEFE" fill-rule="evenodd" d="M39.4846 7.91938C39.4063 7.92911 39.0583 7.97395 38.7114 8.01901C38.3644 8.06406 37.7509 8.15538 37.3481 8.22196C36.9452 8.2885 36.3775 8.38983 36.0865 8.44713C35.7955 8.50439 35.2151 8.63197 34.7967 8.73062C34.3783 8.82926 33.6916 9.00967 33.2706 9.1316C32.8496 9.25348 32.2855 9.42917 32.0169 9.52199C31.7483 9.61486 31.2813 9.79116 30.9791 9.91378C30.6769 10.0364 30.1825 10.2605 29.8803 10.4116C29.5781 10.5628 29.1569 10.7922 28.9443 10.9215C28.7317 11.0508 28.3837 11.2868 28.1711 11.4459C27.9584 11.6051 27.6142 11.908 27.406 12.1191C27.1978 12.3302 26.9117 12.6515 26.7702 12.8332C26.6287 13.0149 26.406 13.3279 26.2753 13.5288C26.1446 13.7298 25.9402 14.0916 25.8209 14.3329C25.7017 14.5743 25.5326 14.9867 25.4451 15.2495C25.3576 15.5123 25.2444 15.9196 25.1935 16.1546C25.1116 16.5325 25.1009 16.695 25.1009 17.5587C25.1009 18.4228 25.1116 18.5846 25.1936 18.9627C25.2445 19.1977 25.3482 19.5759 25.4239 19.8031C25.4996 20.0303 25.6379 20.3679 25.7311 20.5533C25.8243 20.7387 25.946 20.9624 26.0016 21.0505L26.1026 21.2105L24.7616 22.5589C23.6974 23.629 23.4096 23.9408 23.3671 24.07C23.3376 24.1596 23.3154 24.3268 23.3177 24.4418C23.32 24.5625 23.3558 24.7171 23.4024 24.808C23.4468 24.8945 23.5261 25.0044 23.5786 25.0522C23.6312 25.0999 23.7363 25.1704 23.8123 25.2088C23.8943 25.2503 24.0438 25.2787 24.1803 25.2787C24.3067 25.2787 24.4823 25.2486 24.5705 25.2117C24.6827 25.1648 25.1288 24.7479 26.0564 23.8232L27.3819 22.5016L27.746 22.7063C27.9462 22.8188 28.2932 22.9823 28.517 23.0694C28.7408 23.1566 29.0613 23.2658 29.2292 23.3119C29.3971 23.3582 29.7084 23.4239 29.921 23.4581C30.1501 23.495 30.5709 23.5204 30.9536 23.5205C31.3233 23.5206 31.7844 23.4937 32.032 23.4578C32.2699 23.4232 32.6733 23.3398 32.9285 23.2724C33.1836 23.2051 33.5774 23.0768 33.8034 22.9873C34.0295 22.8979 34.3698 22.7407 34.5598 22.6382C34.7497 22.5357 35.0653 22.344 35.2612 22.2123C35.4571 22.0805 35.7982 21.8175 36.0192 21.6277C36.2401 21.4379 36.5548 21.1315 36.7186 20.9469C36.8824 20.7622 37.1106 20.4829 37.2257 20.3261C37.3408 20.1694 37.542 19.8671 37.6728 19.6545C37.8036 19.4419 38.016 19.0573 38.1447 18.7999C38.2735 18.5425 38.4512 18.1671 38.5396 17.9656C38.628 17.7642 38.8035 17.321 38.9296 16.9807C39.0557 16.6405 39.2504 16.0584 39.3623 15.6872C39.4743 15.3159 39.6473 14.6878 39.7468 14.2913C39.8463 13.8948 40.0015 13.2098 40.0916 12.769C40.1817 12.3282 40.301 11.6963 40.3566 11.365C40.4121 11.0336 40.5056 10.4236 40.5643 10.0095C40.6229 9.59545 40.6741 9.09184 40.6781 8.89039C40.6845 8.55648 40.6752 8.50716 40.5721 8.33192C40.5009 8.21064 40.3919 8.10028 40.2771 8.033C40.1507 7.9589 40.0236 7.92256 39.861 7.91401C39.7324 7.90721 39.5629 7.90966 39.4846 7.91938ZM38.7686 9.97901C38.7548 10.0742 38.6728 10.5764 38.5864 11.0952C38.4999 11.614 38.3531 12.3923 38.2601 12.8248C38.1672 13.2573 38.0013 13.9468 37.8916 14.3571C37.7819 14.7674 37.5841 15.4267 37.452 15.8222C37.3199 16.2177 37.1081 16.7876 36.9812 17.0887C36.8544 17.3898 36.6769 17.7827 36.5868 17.9619C36.4967 18.141 36.3398 18.4258 36.2381 18.5946C36.1364 18.7635 35.9294 19.0674 35.778 19.27C35.6266 19.4726 35.322 19.8114 35.1009 20.0229C34.8799 20.2343 34.5259 20.5305 34.3143 20.6811C34.1027 20.8316 33.7281 21.0541 33.4819 21.1756C33.2357 21.297 32.8878 21.4436 32.7087 21.5013C32.5296 21.559 32.2458 21.6356 32.0779 21.6715C31.91 21.7074 31.542 21.7469 31.26 21.7594C30.9527 21.7729 30.6105 21.7625 30.4054 21.7334C30.2174 21.7068 29.8934 21.6404 29.6857 21.586C29.4779 21.5316 29.1676 21.4222 28.9961 21.343L28.6844 21.199L30.722 19.155C32.3738 17.4979 32.7697 17.0802 32.8127 16.9482C32.8419 16.8587 32.864 16.6912 32.8617 16.576C32.8594 16.4608 32.8265 16.3051 32.7885 16.2301C32.7506 16.155 32.6805 16.0506 32.6327 15.9981C32.585 15.9455 32.4751 15.8662 32.3886 15.8219C32.2976 15.7752 32.1431 15.7395 32.0223 15.7371C31.9074 15.7348 31.7401 15.7569 31.6506 15.7861C31.5186 15.8292 31.1013 16.2246 29.4463 17.8744L27.4047 19.9096L27.3047 19.7108C27.2497 19.6015 27.1569 19.3691 27.0985 19.1943C27.0402 19.0195 26.9602 18.7265 26.9208 18.5432C26.8686 18.3003 26.8493 18.0274 26.8496 17.5383C26.85 17.0452 26.8696 16.7775 26.9233 16.5303C26.9636 16.3453 27.05 16.0357 27.1153 15.8425C27.1807 15.6492 27.3078 15.3389 27.3978 15.1529C27.4878 14.967 27.69 14.6226 27.8471 14.3876C28.0059 14.1501 28.324 13.7608 28.5634 13.511C28.8002 13.2639 29.1522 12.9459 29.3456 12.8044C29.539 12.6629 29.8351 12.4637 30.0036 12.3618C30.1721 12.2599 30.4406 12.1108 30.6002 12.0303C30.7599 11.95 31.1439 11.7759 31.4537 11.6436C31.7634 11.5113 32.2916 11.31 32.6273 11.1963C32.963 11.0825 33.524 10.9078 33.8739 10.8081C34.2239 10.7083 34.831 10.5524 35.223 10.4615C35.6151 10.3707 36.2811 10.2315 36.703 10.1522C37.1249 10.073 37.7448 9.96432 38.0806 9.91072C38.4163 9.85717 38.7141 9.81171 38.7424 9.80967C38.7799 9.80703 38.7869 9.85281 38.7686 9.97901Z" clip-rule="evenodd"/></svg>