<svg xmlns="http://www.w3.org/2000/svg" width="41" height="40" fill="none" viewBox="0 0 41 40"><path fill="#008512" d="M34.3788 14.2808C34.4288 6.4568 28.1044 0.0506719 20.2809 0.000254243C12.4467 -0.046183 6.05071 6.27459 6.0003 14.0982C5.96403 19.7569 9.26285 24.6717 14.0508 26.979L14.0972 39.3393C14.0981 39.6046 14.2568 39.8434 14.501 39.9469C14.5846 39.9827 14.673 40 14.7606 40C14.9282 40 15.0932 39.9363 15.2192 39.8165L20.1221 35.1334L25.0582 39.7837C25.251 39.9659 25.5349 40.0142 25.7768 39.9093C26.0201 39.8041 26.1771 39.5639 26.1762 39.2986L26.1342 27.0692C30.9667 24.8292 34.3425 19.9501 34.3788 14.2808ZM24.8441 37.7595L20.5732 33.7363C20.3167 33.4944 19.9156 33.4957 19.6604 33.7394L15.4182 37.7914L15.3797 27.5367C16.8551 28.07 18.4424 28.3681 20.0982 28.3787C20.1292 28.3787 20.1597 28.3792 20.1906 28.3792C21.8067 28.3792 23.3594 28.1037 24.8087 27.603L24.8441 37.7595ZM20.1906 27.0524C20.1632 27.0524 20.1345 27.052 20.1071 27.052C13.0145 27.0064 7.28152 21.1995 7.32752 14.1066C7.37307 7.04191 13.1344 1.32659 20.1889 1.32659C20.2163 1.32659 20.245 1.32659 20.2725 1.32659C27.3645 1.37259 33.0976 7.17946 33.052 14.272C33.0069 21.3366 27.2451 27.0524 20.1906 27.0524Z"/><path fill="#008512" d="M26.6388 12.151L22.6054 11.5389L20.8248 7.87078C20.7147 7.64346 20.4847 7.49884 20.2326 7.49707C20.2313 7.49707 20.23 7.49707 20.2282 7.49707C19.9774 7.49707 19.7479 7.63859 19.6351 7.86326L17.8077 11.5084L13.7686 12.0683C13.5187 12.1032 13.3095 12.2766 13.2303 12.5163C13.1507 12.756 13.214 13.02 13.394 13.1974L16.2956 16.0628L15.5809 20.0776C15.5367 20.3261 15.6371 20.5782 15.8405 20.7282C16.044 20.8781 16.3147 20.8989 16.5389 20.783L20.1597 18.9087L23.7583 20.8294C23.8565 20.8816 23.9635 20.9077 24.0706 20.9077C24.2068 20.9077 24.3421 20.8657 24.4571 20.7834C24.6623 20.6366 24.7662 20.3858 24.7251 20.1364L24.0617 16.1127L27.0001 13.2845C27.1819 13.1093 27.2486 12.8462 27.1726 12.6056C27.0952 12.3655 26.8891 12.189 26.6388 12.151ZM22.8902 15.3989C22.7332 15.5502 22.6598 15.7691 22.6956 15.9849L23.1971 19.0263L20.4768 17.574C20.379 17.5218 20.2715 17.4957 20.1641 17.4957C20.0593 17.4957 19.9549 17.5204 19.8594 17.57L17.1227 18.9865L17.6627 15.9518C17.7011 15.7368 17.6313 15.517 17.4756 15.3635L15.2824 13.1978L18.3358 12.7741C18.552 12.744 18.74 12.6096 18.8377 12.4146L20.2189 9.65972L21.5647 12.4322C21.6602 12.6286 21.8464 12.7657 22.0623 12.7984L25.1116 13.261L22.8902 15.3989Z"/></svg>