<svg width="24" height="26" viewBox="0 0 24 26" fill="none" xmlns="http://www.w3.org/2000/svg">
<path d="M9.61557 23.9078C11.0019 24.6842 12.3674 25.0741 13.6394 25.0741C14.7042 25.0738 15.7034 24.8003 16.5928 24.2514L19.8709 22.2292C19.9891 22.1563 20.0735 22.0398 20.1056 21.9045C20.1377 21.7695 20.1143 21.6272 20.0414 21.509L17.2 16.9038C17.1271 16.7859 17.0102 16.7015 16.8753 16.6694C16.7393 16.6377 16.5976 16.6607 16.4798 16.7336L14.4674 17.967C13.9595 18.2802 13.308 18.3803 12.6813 18.2425C12.0546 18.1044 11.5195 17.741 11.2133 17.2443L6.72426 9.96927C6.0752 8.91738 6.40235 7.53345 7.45355 6.88438L9.59151 5.57286C9.83739 5.42114 9.91343 5.09888 9.76171 4.85299L6.91991 0.24885C6.7682 0.00296529 6.44558 -0.0741135 6.20005 0.0783L2.77475 2.19256C-1.04291 4.54886 -0.908978 10.7343 3.10121 17.2348C4.93958 20.2154 7.25334 22.5853 9.61557 23.9078ZM3.32477 3.08263L6.30468 1.24355L8.59716 4.95728L6.90458 5.99362L6.90318 5.99466C5.36231 6.94716 4.8824 8.97597 5.8342 10.5182L10.3232 17.7929C10.777 18.5292 11.5548 19.0653 12.4567 19.2641C13.3464 19.459 14.2801 19.3115 15.017 18.8567L16.584 17.8981L18.8762 21.6126L16.0431 23.3602C13.9742 24.6368 11.6838 23.866 10.1269 22.9944C7.9174 21.7569 5.73827 19.5164 3.99162 16.6851C0.305098 10.7092 0.0309627 5.11562 3.32477 3.08263Z" fill="#008512"/>
<path d="M14.1684 6.70425C15.3176 6.7722 16.3346 7.36264 16.9592 8.32453C17.5562 9.24121 17.6999 10.3646 17.3531 11.4067C17.2911 11.5928 17.3917 11.794 17.5778 11.8556C17.6149 11.8681 17.6526 11.8738 17.69 11.8738C17.8389 11.8738 17.9774 11.7798 18.0269 11.6309C18.4426 10.3823 18.2702 9.03571 17.5546 7.93722C16.8173 6.80132 15.5669 6.07522 14.2103 5.99496C14.0126 5.98668 13.8464 6.13275 13.8348 6.32854C13.8232 6.52456 13.9726 6.69265 14.1684 6.70425Z" fill="#008512"/>
<path d="M14.6656 4.06822C16.5264 4.282 18.1782 5.30308 19.1974 6.86915C20.1848 8.3874 20.4647 10.2567 19.9649 11.998C19.9107 12.1867 20.0196 12.3832 20.208 12.4372C20.2409 12.4466 20.2736 12.4511 20.3063 12.4511C20.4604 12.4511 20.6027 12.3496 20.6472 12.194C21.2038 10.2548 20.8922 8.17267 19.7925 6.48184C18.6576 4.73774 16.8186 3.60089 14.7466 3.36272C14.5555 3.34023 14.3758 3.48015 14.3533 3.67499C14.3308 3.86983 14.4705 4.04573 14.6656 4.06822Z" fill="#008512"/>
<path d="M15.1511 1.74658C17.6225 2.0901 19.82 3.48689 21.1803 5.57901C22.513 7.62614 22.9126 10.1546 22.2772 12.5159C22.226 12.7053 22.3385 12.9001 22.5279 12.951C22.5586 12.9593 22.5899 12.9633 22.6204 12.9633C22.7769 12.9633 22.9206 12.8591 22.963 12.7005C23.651 10.1446 23.2182 7.40762 21.7757 5.19169C20.3032 2.92723 17.9244 1.41514 15.2494 1.04321C15.056 1.01741 14.8756 1.15164 14.8488 1.34601C14.8216 1.54014 14.957 1.71959 15.1511 1.74658Z" fill="#008512"/>
</svg>
