<svg width="16" height="15" viewBox="0 0 16 15" fill="none" xmlns="http://www.w3.org/2000/svg">
<path d="M2.86444 14.3501C2.78644 14.794 3.22441 15.141 3.61038 14.943L8.00004 12.6872L12.3887 14.943C12.7747 15.141 13.2126 14.794 13.1347 14.3511L12.3047 9.62141L15.8264 6.26567C16.1564 5.95169 15.9864 5.37773 15.5445 5.31574L10.6468 4.61979L8.46301 0.293121C8.42141 0.205417 8.35577 0.131317 8.27373 0.0794301C8.19169 0.0275434 8.09661 0 7.99954 0C7.90247 0 7.80739 0.0275434 7.72535 0.0794301C7.64331 0.131317 7.57768 0.205417 7.53608 0.293121L5.35225 4.62079L0.454619 5.31674C0.0136524 5.37873 -0.157335 5.95269 0.17164 6.26667L3.69437 9.62241L2.86444 14.352V14.3501Z" fill="#FFB020"/>
</svg>
