<svg width="41" height="40" viewBox="0 0 41 40" fill="none" xmlns="http://www.w3.org/2000/svg">
<g clip-path="url(#clip0_26_227570)">
<path fill-rule="evenodd" clip-rule="evenodd" d="M36.5367 10.5952H19.6738C19.3153 10.5952 19.0251 10.8854 19.0251 11.2439L19.0251 39.3497C19.0251 39.7078 19.3153 39.9984 19.6738 39.9984L20.3224 40.0001H36.5367C36.8948 40.0001 37.1853 39.7095 37.1853 39.3514V11.2439C37.1853 10.8854 36.8948 10.5952 36.5367 10.5952ZM20.3225 38.7028H35.888V11.8925H20.3225V38.7028Z" fill="#008512"/>
<path d="M25.2976 24.4318H30.9188C31.2769 24.4318 31.5675 24.1416 31.5675 23.7831V18.1623C31.5675 17.8038 31.2769 17.5137 30.9188 17.5137H25.2976C24.9395 17.5137 24.6489 17.8038 24.6489 18.1623V23.7831C24.6489 24.1416 24.9395 24.4318 25.2976 24.4318ZM25.9462 18.811H30.2702V23.1345H25.9462V18.811Z" fill="#008512"/>
<path d="M30.9206 26.5942H25.3006C24.9426 26.5942 24.652 26.8848 24.652 27.2429V32.8637C24.652 33.2218 24.9426 33.5124 25.3006 33.5124H30.9206C31.2786 33.5124 31.5692 33.2218 31.5692 32.8637V27.2429C31.5692 26.8848 31.2786 26.5942 30.9206 26.5942ZM30.2719 32.2151H25.9493V27.8915H30.2719V32.2151Z" fill="#008512"/>
<path fill-rule="evenodd" clip-rule="evenodd" d="M19.5115 0H2.64866C2.29017 0 2 0.290165 2 0.648656L2.00013 39.3496C2.00013 39.7077 2.29029 39.9983 2.64878 39.9983L3.29743 40H19.5117C19.8697 40 20.1603 39.7094 20.1603 39.3513L20.1602 0.648656C20.1602 0.290165 19.8696 0 19.5115 0ZM3.29744 38.7027H18.863L18.8629 1.29731H3.29731L3.29744 38.7027Z" fill="#008512"/>
<path d="M8.26737 23.5661H13.8886C14.2467 23.5661 14.5373 23.2759 14.5373 22.9174V17.2966C14.5373 16.9381 14.2467 16.6479 13.8886 16.6479H8.26737C7.90931 16.6479 7.61871 16.9381 7.61871 17.2966V22.9174C7.61871 23.2759 7.90931 23.5661 8.26737 23.5661ZM8.91603 17.9453H13.24V22.2688H8.91603V17.9453Z" fill="#008512"/>
<path d="M8.26737 14.486H13.8886C14.2467 14.486 14.5373 14.1958 14.5373 13.8373V8.21653C14.5373 7.85804 14.2467 7.56787 13.8886 7.56787H8.26737C7.90931 7.56787 7.61871 7.85804 7.61871 8.21653V13.8373C7.61871 14.1958 7.90931 14.486 8.26737 14.486ZM8.91603 8.86518H13.24V13.1887H8.91603V8.86518Z" fill="#008512"/>
<path d="M13.8904 25.7285H8.27042C7.91236 25.7285 7.62177 26.0191 7.62177 26.3772V31.998C7.62177 32.356 7.91236 32.6466 8.27042 32.6466H13.8904C14.2484 32.6466 14.539 32.356 14.539 31.998V26.3772C14.539 26.0191 14.2484 25.7285 13.8904 25.7285ZM13.2417 31.3493H8.91908V27.0258H13.2417V31.3493Z" fill="#008512"/>
</g>
<defs>
<clipPath id="clip0_26_227570">
<rect width="40.0012" height="40" fill="white" transform="translate(0.00244141)"/>
</clipPath>
</defs>
</svg>
