<svg xmlns="http://www.w3.org/2000/svg" width="20" height="20" fill="none" viewBox="0 0 20 20"><path fill="#fff" d="M17.1117 2.91891C15.2588 1.02706 12.6975 0 10.0817 0C4.52321 0 0.0545304 4.48647 0.108983 9.94591C0.108983 11.6757 0.599444 13.3514 1.41693 14.8649L0 20L5.28609 18.6486C6.75747 19.4595 8.39229 19.8379 10.0273 19.8379C15.5313 19.8379 20 15.3513 20 9.89198C20 7.24327 18.9645 4.75676 17.1117 2.91891ZM10.0817 18.1622C8.61033 18.1622 7.13895 17.7839 5.88553 17.0272L5.55859 16.865L2.39785 17.6757L3.21526 14.5947L2.9973 14.2703C0.599444 10.4326 1.74388 5.35134 5.66757 2.97292C9.59126 0.594585 14.6594 1.72974 17.0572 5.62163C19.455 9.51351 18.3106 14.5406 14.387 16.919C13.1335 17.7298 11.6076 18.1622 10.0817 18.1622ZM14.8773 12.1623L14.2779 11.892C14.2779 11.892 13.406 11.5136 12.861 11.2433C12.8065 11.2433 12.7521 11.1892 12.6975 11.1892C12.534 11.1892 12.425 11.2433 12.3161 11.2974C12.3161 11.2974 12.2616 11.3514 11.4986 12.2163C11.4441 12.3244 11.3351 12.3785 11.2262 12.3785H11.1716C11.1172 12.3785 11.0082 12.3244 10.9537 12.2704L10.6812 12.1623C10.0817 11.892 9.5368 11.5676 9.1008 11.1352C8.99181 11.0271 8.8283 10.919 8.71932 10.8109C8.33784 10.4326 7.95636 10.0001 7.68394 9.51359L7.62941 9.40549C7.57496 9.3514 7.57496 9.29739 7.52043 9.18929C7.52043 9.08119 7.52043 8.97309 7.57496 8.91901C7.57496 8.91901 7.79293 8.64872 7.95636 8.48661C8.06542 8.37843 8.11987 8.21632 8.22886 8.10822C8.33784 7.94604 8.39237 7.72984 8.33784 7.56765C8.28339 7.29736 7.62941 5.8379 7.46598 5.51361C7.35692 5.35142 7.24801 5.29741 7.0845 5.24332H6.48505C6.37599 5.24332 6.26709 5.29741 6.15803 5.29741L6.1035 5.35142C5.99452 5.40551 5.88553 5.51361 5.77655 5.56762C5.66757 5.6758 5.61304 5.78382 5.50406 5.89199C5.12258 6.37848 4.90461 6.97306 4.90461 7.56765C4.90461 8.00005 5.01359 8.43252 5.17711 8.81091L5.23164 8.97309C5.7221 10.0001 6.37599 10.919 7.24801 11.7298L7.46598 11.946C7.62941 12.1082 7.79293 12.2163 7.90191 12.3784C9.04634 13.3515 10.3542 14.0541 11.8256 14.4325C11.9891 14.4865 12.2071 14.4865 12.3706 14.5406H12.9155C13.188 14.5406 13.5149 14.4325 13.733 14.3244C13.8964 14.2163 14.0054 14.2163 14.1144 14.1082L14.2234 14.0001C14.3324 13.892 14.4414 13.838 14.5504 13.7299C14.6594 13.6218 14.7684 13.5137 14.8229 13.4055C14.9319 13.1893 14.9863 12.919 15.0409 12.6488V12.2704C15.0409 12.2704 14.9863 12.2163 14.8773 12.1623Z"/></svg>